<svg version="1.1" viewBox="0.0 0.0 352.0 402.0" fill="none" stroke="none" stroke-linecap="square" stroke-miterlimit="10" width="352" height="402" xmlns:xlink="http://www.w3.org/1999/xlink" xmlns="http://www.w3.org/2000/svg"><path fill="#000000" d="M0 0L352.0 0L352.0 402.0L0 402.0L0 0Z" fill-rule="nonzero"/><path fill="#ea4335" d="M19.137083 165.67494C41.71525 96.18649 106.47019 49.13927 179.53467 49.13927L179.53467 133.46527C143.00243 133.46527 110.624954 156.98888 99.33588 191.73311Z" fill-rule="nonzero"/><path fill="#4285f4" d="M179.53467 49.13927C252.59914 49.13927 317.3541 96.18649 339.93225 165.67494C362.5104 235.16339 337.7762 311.28738 278.66583 354.2336C219.55542 397.17984 139.51392 397.17984 80.40351 354.2336C21.293106 311.28738 -3.4410815 235.16339 19.137083 165.67494L99.33588 191.73311C88.04679 226.47733 100.41389 264.53934 129.96909 286.01245C159.52429 307.48557 199.54504 307.48557 229.10025 286.01245C258.65546 264.53934 271.02255 226.47733 259.73346 191.73311C248.44438 156.98888 216.06691 133.46527 179.53467 133.46527Z" fill-rule="nonzero"/><path fill="#4285f4" d="M103.03467 27.34589C103.03467 30.659597 100.34837 33.34589 97.03467 33.34589C93.720955 33.34589 91.03467 30.659597 91.03467 27.34589C91.03467 24.03218 93.720955 21.34589 97.03467 21.34589C100.34837 21.34589 103.03467 24.03218 103.03467 27.34589Z" fill-rule="nonzero"/><path fill="#ffffff" d="M112.89404 34.34589L112.89404 20.03339L114.80029 20.03339L114.80029 34.34589L112.89404 34.34589ZM117.94092 29.75214L119.72217 29.59589Q119.84717 30.65839 120.30029 31.34589Q120.76904 32.03339 121.73779 32.47089Q122.72217 32.892765 123.95654 32.892765Q125.03467 32.892765 125.86279 32.580265Q126.69092 32.25214 127.09717 31.68964Q127.50342 31.12714 127.50342 30.455265Q127.50342 29.78339 127.11279 29.28339Q126.72217 28.78339 125.83154 28.43964Q125.25342 28.205265 123.26904 27.736515Q121.30029 27.267765 120.51904 26.84589Q119.48779 26.31464 118.98779 25.517765Q118.48779 24.72089 118.48779 23.736515Q118.48779 22.642765 119.09717 21.705265Q119.70654 20.767765 120.89404 20.28339Q122.08154 19.78339 123.51904 19.78339Q125.11279 19.78339 126.33154 20.299015Q127.55029 20.81464 128.19092 21.81464Q128.84717 22.799015 128.89404 24.06464L127.08154 24.205265Q126.94092 22.84589 126.09717 22.15839Q125.25342 21.455265 123.59717 21.455265Q121.87842 21.455265 121.08154 22.09589Q120.30029 22.72089 120.30029 23.59589Q120.30029 24.37714 120.86279 24.87714Q121.40967 25.37714 123.72217 25.892765Q126.03467 26.40839 126.89404 26.799015Q128.14404 27.37714 128.7378 28.267765Q129.33154 29.142765 129.33154 30.299015Q129.33154 31.43964 128.6753 32.455265Q128.01904 33.47089 126.78467 34.03339Q125.56592 34.59589 124.03467 34.59589Q122.09717 34.59589 120.78467 34.03339Q119.47217 33.455265 118.72217 32.31464Q117.97217 31.174015 117.94092 29.75214ZM131.89404 34.34589L131.89404 20.03339L133.8003 20.03339L133.8003 34.34589L131.89404 34.34589ZM136.94092 29.75214L138.72217 29.59589Q138.84717 30.65839 139.3003 31.34589Q139.76904 32.03339 140.7378 32.47089Q141.72217 32.892765 142.95654 32.892765Q144.03467 32.892765 144.8628 32.580265Q145.69092 32.25214 146.09717 31.68964Q146.50342 31.12714 146.50342 30.455265Q146.50342 29.78339 146.1128 29.28339Q145.72217 28.78339 144.83154 28.43964Q144.25342 28.205265 142.26904 27.736515Q140.3003 27.267765 139.51904 26.84589Q138.4878 26.31464 137.9878 25.517765Q137.4878 24.72089 137.4878 23.736515Q137.4878 22.642765 138.09717 21.705265Q138.70654 20.767765 139.89404 20.28339Q141.08154 19.78339 142.51904 19.78339Q144.1128 19.78339 145.33154 20.299015Q146.5503 20.81464 147.19092 21.81464Q147.84717 22.799015 147.89404 24.06464L146.08154 24.205265Q145.94092 22.84589 145.09717 22.15839Q144.25342 21.455265 142.59717 21.455265Q140.87842 21.455265 140.08154 22.09589Q139.3003 22.72089 139.3003 23.59589Q139.3003 24.37714 139.8628 24.87714Q140.40967 25.37714 142.72217 25.892765Q145.03467 26.40839 145.89404 26.799015Q147.14404 27.37714 147.7378 28.267765Q148.33154 29.142765 148.33154 30.299015Q148.33154 31.43964 147.6753 32.455265Q147.01904 33.47089 145.78467 34.03339Q144.56592 34.59589 143.03467 34.59589Q141.09717 34.59589 139.78467 34.03339Q138.47217 33.455265 137.72217 32.31464Q136.97217 31.174015 136.94092 29.75214Z" fill-rule="nonzero"/><path fill="#ea4335" d="M177.03467 27.34589C177.03467 30.659597 174.34837 33.34589 171.03467 33.34589C167.72096 33.34589 165.03467 30.659597 165.03467 27.34589C165.03467 24.03218 167.72096 21.34589 171.03467 21.34589C174.34837 21.34589 177.03467 24.03218 177.03467 27.34589Z" fill-rule="nonzero"/><path fill="#ffffff" d="M185.00342 34.34589L190.50342 20.03339L192.5503 20.03339L198.40967 34.34589L196.25342 34.34589L194.58154 30.00214L188.59717 30.00214L187.01904 34.34589L185.00342 34.34589ZM189.14404 28.47089L193.9878 28.47089L192.50342 24.50214Q191.81592 22.68964 191.4878 21.53339Q191.20654 22.90839 190.70654 24.267765L189.14404 28.47089ZM199.31592 34.34589L199.31592 20.03339L201.06592 20.03339L201.06592 34.34589L199.31592 34.34589ZM220.4253 32.81464Q221.75342 33.72089 222.8628 34.142765L222.3003 35.455265Q220.75342 34.90839 219.22217 33.705265Q217.62842 34.59589 215.70654 34.59589Q213.76904 34.59589 212.1753 33.65839Q210.59717 32.72089 209.7378 31.017765Q208.89404 29.31464 208.89404 27.18964Q208.89404 25.06464 209.75342 23.330265Q210.6128 21.59589 212.19092 20.68964Q213.78467 19.767765 215.75342 19.767765Q217.7378 19.767765 219.31592 20.72089Q220.90967 21.65839 221.7378 23.361515Q222.58154 25.049015 222.58154 27.174015Q222.58154 28.93964 222.0503 30.361515Q221.51904 31.767765 220.4253 32.81464ZM216.25342 30.392765Q217.89404 30.84589 218.95654 31.75214Q220.62842 30.236515 220.62842 27.174015Q220.62842 25.43964 220.03467 24.142765Q219.45654 22.84589 218.31592 22.12714Q217.1753 21.40839 215.75342 21.40839Q213.64404 21.40839 212.2378 22.861515Q210.84717 24.299015 210.84717 27.18964Q210.84717 29.986515 212.22217 31.486515Q213.6128 32.97089 215.75342 32.97089Q216.76904 32.97089 217.6753 32.580265Q216.78467 32.017765 215.8003 31.767765L216.25342 30.392765ZM232.12842 33.06464Q231.14404 33.892765 230.2378 34.236515Q229.33154 34.580265 228.3003 34.580265Q226.59717 34.580265 225.6753 33.75214Q224.75342 32.90839 224.75342 31.611515Q224.75342 30.84589 225.09717 30.22089Q225.45654 29.59589 226.01904 29.22089Q226.58154 28.830265 227.28467 28.62714Q227.8003 28.50214 228.84717 28.361515Q230.97217 28.111515 231.97217 27.767765Q231.9878 27.40839 231.9878 27.299015Q231.9878 26.236515 231.4878 25.78339Q230.81592 25.18964 229.4878 25.18964Q228.2378 25.18964 227.64404 25.62714Q227.06592 26.06464 226.78467 27.174015L225.06592 26.93964Q225.3003 25.830265 225.83154 25.15839Q226.3628 24.47089 227.37842 24.111515Q228.39404 23.736515 229.7378 23.736515Q231.06592 23.736515 231.89404 24.049015Q232.72217 24.361515 233.1128 24.84589Q233.50342 25.31464 233.65967 26.03339Q233.75342 26.486515 233.75342 27.65839L233.75342 30.00214Q233.75342 32.455265 233.8628 33.111515Q233.97217 33.75214 234.31592 34.34589L232.47217 34.34589Q232.20654 33.799015 232.12842 33.06464ZM231.97217 29.142765Q231.01904 29.53339 229.09717 29.799015Q228.01904 29.955265 227.56592 30.15839Q227.12842 30.34589 226.87842 30.72089Q226.62842 31.09589 226.62842 31.56464Q226.62842 32.267765 227.15967 32.736515Q227.69092 33.205265 228.72217 33.205265Q229.7378 33.205265 230.51904 32.767765Q231.31592 32.31464 231.69092 31.549015Q231.97217 30.93964 231.97217 29.78339L231.97217 29.142765ZM243.45654 31.00214L245.26904 31.236515Q244.84717 32.81464 243.6753 33.705265Q242.51904 34.580265 240.70654 34.580265Q238.44092 34.580265 237.09717 33.18964Q235.76904 31.78339 235.76904 29.25214Q235.76904 26.62714 237.1128 25.18964Q238.45654 23.736515 240.6128 23.736515Q242.69092 23.736515 244.00342 25.15839Q245.33154 26.56464 245.33154 29.142765Q245.33154 29.299015 245.31592 29.611515L237.58154 29.611515Q237.6753 31.31464 238.5503 32.22089Q239.4253 33.12714 240.72217 33.12714Q241.69092 33.12714 242.3628 32.62714Q243.0503 32.111515 243.45654 31.00214ZM237.6753 28.15839L243.47217 28.15839Q243.3628 26.861515 242.81592 26.205265Q241.97217 25.18964 240.62842 25.18964Q239.4253 25.18964 238.59717 26.00214Q237.76904 26.799015 237.6753 28.15839ZM254.08154 34.34589L254.08154 33.03339Q253.09717 34.580265 251.1753 34.580265Q249.94092 34.580265 248.89404 33.892765Q247.8628 33.205265 247.28467 31.986515Q246.72217 30.767765 246.72217 29.174015Q246.72217 27.611515 247.2378 26.34589Q247.75342 25.080265 248.78467 24.40839Q249.83154 23.736515 251.09717 23.736515Q252.03467 23.736515 252.76904 24.142765Q253.50342 24.53339 253.97217 25.15839L253.97217 20.03339L255.70654 20.03339L255.70654 34.34589L254.08154 34.34589ZM248.51904 29.174015Q248.51904 31.15839 249.3628 32.142765Q250.20654 33.12714 251.34717 33.12714Q252.50342 33.12714 253.3003 32.18964Q254.1128 31.25214 254.1128 29.31464Q254.1128 27.18964 253.28467 26.18964Q252.47217 25.18964 251.26904 25.18964Q250.09717 25.18964 249.3003 26.15839Q248.51904 27.111515 248.51904 29.174015ZM265.12842 33.06464Q264.14404 33.892765 263.2378 34.236515Q262.33154 34.580265 261.3003 34.580265Q259.59717 34.580265 258.6753 33.75214Q257.75342 32.90839 257.75342 31.611515Q257.75342 30.84589 258.09717 30.22089Q258.45654 29.59589 259.01904 29.22089Q259.58154 28.830265 260.28467 28.62714Q260.8003 28.50214 261.84717 28.361515Q263.97217 28.111515 264.97217 27.767765Q264.9878 27.40839 264.9878 27.299015Q264.9878 26.236515 264.4878 25.78339Q263.81592 25.18964 262.4878 25.18964Q261.2378 25.18964 260.64404 25.62714Q260.06592 26.06464 259.78467 27.174015L258.06592 26.93964Q258.3003 25.830265 258.83154 25.15839Q259.3628 24.47089 260.37842 24.111515Q261.39404 23.736515 262.7378 23.736515Q264.06592 23.736515 264.89404 24.049015Q265.72217 24.361515 266.1128 24.84589Q266.50342 25.31464 266.65967 26.03339Q266.75342 26.486515 266.75342 27.65839L266.75342 30.00214Q266.75342 32.455265 266.8628 33.111515Q266.97217 33.75214 267.31592 34.34589L265.47217 34.34589Q265.20654 33.799015 265.12842 33.06464ZM264.97217 29.142765Q264.01904 29.53339 262.09717 29.799015Q261.01904 29.955265 260.56592 30.15839Q260.12842 30.34589 259.87842 30.72089Q259.62842 31.09589 259.62842 31.56464Q259.62842 32.267765 260.15967 32.736515Q260.69092 33.205265 261.72217 33.205265Q262.7378 33.205265 263.51904 32.767765Q264.31592 32.31464 264.69092 31.549015Q264.97217 30.93964 264.97217 29.78339L264.97217 29.142765Z" fill-rule="nonzero"/></svg>