<svg version="1.1" viewBox="0.0 0.0 352.0 402.0" fill="none" stroke="none" stroke-linecap="square" stroke-miterlimit="10" width="352" height="402" xmlns:xlink="http://www.w3.org/1999/xlink" xmlns="http://www.w3.org/2000/svg"><path fill="#000000" d="M0 0L352.0 0L352.0 402.0L0 402.0L0 0Z" fill-rule="nonzero"/><path fill="#4285f4" d="M179.53467 49.13927C239.78822 49.13927 295.4648 81.284164 325.59158 133.46527L252.56313 175.62827C237.49974 149.53772 209.66144 133.46527 179.53467 133.46527Z" fill-rule="nonzero"/><path fill="#fbbc04" d="M95.208664 363.84818C29.102476 325.68176 -3.1270518 247.8728 16.629345 174.14093C36.385742 100.40905 103.20181 49.13927 179.53467 49.13927L179.53467 133.46527C141.36824 133.46527 107.960205 159.10016 98.08201 195.9661C88.203804 232.83203 104.31857 271.7365 137.37167 290.81973Z" fill-rule="nonzero"/><path fill="#ea4335" d="M325.59158 133.46527C363.758 199.57146 352.7651 283.07077 298.78964 337.04623C244.81416 391.02173 161.31485 402.01462 95.208664 363.84818L137.37167 290.81973C170.42476 309.90295 212.17441 304.4065 239.16216 277.41876C266.1499 250.43102 271.64633 208.68137 252.56313 175.62827Z" fill-rule="nonzero"/><path fill="#4285f4" d="M28.534666 22.062878C28.534666 25.376587 25.848375 28.062878 22.534666 28.062878C19.220959 28.062878 16.534666 25.376587 16.534666 22.062878C16.534666 18.74917 19.220959 16.062878 22.534666 16.062878C25.848375 16.062878 28.534666 18.74917 28.534666 22.062878Z" fill-rule="nonzero"/><path fill="#ffffff" d="M38.394043 29.062878L38.394043 14.750378L40.300293 14.750378L40.300293 29.062878L38.394043 29.062878ZM43.440918 24.469128L45.222168 24.312878Q45.347168 25.375378 45.800293 26.062878Q46.269043 26.750378 47.237793 27.187878Q48.222168 27.609753 49.456543 27.609753Q50.534668 27.609753 51.362793 27.297253Q52.190918 26.969128 52.597168 26.406628Q53.003418 25.844128 53.003418 25.172253Q53.003418 24.500378 52.612793 24.000378Q52.222168 23.500378 51.331543 23.156628Q50.753418 22.922253 48.769043 22.453503Q46.800293 21.984753 46.019043 21.562878Q44.987793 21.031628 44.487793 20.234753Q43.987793 19.437878 43.987793 18.453503Q43.987793 17.359753 44.597168 16.422253Q45.206543 15.484753 46.394043 15.000378Q47.581543 14.500378 49.019043 14.500378Q50.612793 14.500378 51.831543 15.016003Q53.050293 15.531628 53.690918 16.531628Q54.347168 17.516003 54.394043 18.781628L52.581543 18.922253Q52.440918 17.562878 51.597168 16.875378Q50.753418 16.172253 49.097168 16.172253Q47.378418 16.172253 46.581543 16.812878Q45.800293 17.437878 45.800293 18.312878Q45.800293 19.094128 46.362793 19.594128Q46.909668 20.094128 49.222168 20.609753Q51.534668 21.125378 52.394043 21.516003Q53.644043 22.094128 54.237793 22.984753Q54.831543 23.859753 54.831543 25.016003Q54.831543 26.156628 54.175293 27.172253Q53.519043 28.187878 52.284668 28.750378Q51.065918 29.312878 49.534668 29.312878Q47.597168 29.312878 46.284668 28.750378Q44.972168 28.172253 44.222168 27.031628Q43.472168 25.891003 43.440918 24.469128ZM57.394043 29.062878L57.394043 14.750378L59.300293 14.750378L59.300293 29.062878L57.394043 29.062878ZM62.440918 24.469128L64.22217 24.312878Q64.34717 25.375378 64.80029 26.062878Q65.26904 26.750378 66.23779 27.187878Q67.22217 27.609753 68.45654 27.609753Q69.53467 27.609753 70.36279 27.297253Q71.19092 26.969128 71.59717 26.406628Q72.00342 25.844128 72.00342 25.172253Q72.00342 24.500378 71.61279 24.000378Q71.22217 23.500378 70.33154 23.156628Q69.75342 22.922253 67.76904 22.453503Q65.80029 21.984753 65.01904 21.562878Q63.987793 21.031628 63.487793 20.234753Q62.987793 19.437878 62.987793 18.453503Q62.987793 17.359753 63.597168 16.422253Q64.20654 15.484753 65.39404 15.000378Q66.58154 14.500378 68.01904 14.500378Q69.61279 14.500378 70.83154 15.016003Q72.05029 15.531628 72.69092 16.531628Q73.34717 17.516003 73.39404 18.781628L71.58154 18.922253Q71.44092 17.562878 70.59717 16.875378Q69.75342 16.172253 68.09717 16.172253Q66.37842 16.172253 65.58154 16.812878Q64.80029 17.437878 64.80029 18.312878Q64.80029 19.094128 65.36279 19.594128Q65.90967 20.094128 68.22217 20.609753Q70.53467 21.125378 71.39404 21.516003Q72.64404 22.094128 73.23779 22.984753Q73.83154 23.859753 73.83154 25.016003Q73.83154 26.156628 73.17529 27.172253Q72.51904 28.187878 71.28467 28.750378Q70.06592 29.312878 68.53467 29.312878Q66.59717 29.312878 65.28467 28.750378Q63.972168 28.172253 63.222168 27.031628Q62.472168 25.891003 62.440918 24.469128Z" fill-rule="nonzero"/><path fill="#ea4335" d="M102.53467 22.062878C102.53467 25.376587 99.84837 28.062878 96.53467 28.062878C93.220955 28.062878 90.53467 25.376587 90.53467 22.062878C90.53467 18.74917 93.220955 16.062878 96.53467 16.062878C99.84837 16.062878 102.53467 18.74917 102.53467 22.062878Z" fill-rule="nonzero"/><path fill="#ffffff" d="M110.50342 29.062878L116.00342 14.750378L118.05029 14.750378L123.90967 29.062878L121.75342 29.062878L120.08154 24.719128L114.09717 24.719128L112.51904 29.062878L110.50342 29.062878ZM114.64404 23.187878L119.48779 23.187878L118.00342 19.219128Q117.31592 17.406628 116.98779 16.250378Q116.70654 17.625378 116.20654 18.984753L114.64404 23.187878ZM124.81592 29.062878L124.81592 14.750378L126.56592 14.750378L126.56592 29.062878L124.81592 29.062878ZM145.9253 27.531628Q147.25342 28.437878 148.3628 28.859753L147.8003 30.172253Q146.25342 29.625378 144.72217 28.422253Q143.12842 29.312878 141.20654 29.312878Q139.26904 29.312878 137.6753 28.375378Q136.09717 27.437878 135.2378 25.734753Q134.39404 24.031628 134.39404 21.906628Q134.39404 19.781628 135.25342 18.047253Q136.1128 16.312878 137.69092 15.406628Q139.28467 14.484753 141.25342 14.484753Q143.2378 14.484753 144.81592 15.437878Q146.40967 16.375378 147.2378 18.078503Q148.08154 19.766003 148.08154 21.891003Q148.08154 23.656628 147.5503 25.078503Q147.01904 26.484753 145.9253 27.531628ZM141.75342 25.109753Q143.39404 25.562878 144.45654 26.469128Q146.12842 24.953503 146.12842 21.891003Q146.12842 20.156628 145.53467 18.859753Q144.95654 17.562878 143.81592 16.844128Q142.6753 16.125378 141.25342 16.125378Q139.14404 16.125378 137.7378 17.578503Q136.34717 19.016003 136.34717 21.906628Q136.34717 24.703503 137.72217 26.203503Q139.1128 27.687878 141.25342 27.687878Q142.26904 27.687878 143.1753 27.297253Q142.28467 26.734753 141.3003 26.484753L141.75342 25.109753ZM157.62842 27.781628Q156.64404 28.609753 155.7378 28.953503Q154.83154 29.297253 153.8003 29.297253Q152.09717 29.297253 151.1753 28.469128Q150.25342 27.625378 150.25342 26.328503Q150.25342 25.562878 150.59717 24.937878Q150.95654 24.312878 151.51904 23.937878Q152.08154 23.547253 152.78467 23.344128Q153.3003 23.219128 154.34717 23.078503Q156.47217 22.828503 157.47217 22.484753Q157.4878 22.125378 157.4878 22.016003Q157.4878 20.953503 156.9878 20.500378Q156.31592 19.906628 154.9878 19.906628Q153.7378 19.906628 153.14404 20.344128Q152.56592 20.781628 152.28467 21.891003L150.56592 21.656628Q150.8003 20.547253 151.33154 19.875378Q151.8628 19.187878 152.87842 18.828503Q153.89404 18.453503 155.2378 18.453503Q156.56592 18.453503 157.39404 18.766003Q158.22217 19.078503 158.6128 19.562878Q159.00342 20.031628 159.15967 20.750378Q159.25342 21.203503 159.25342 22.375378L159.25342 24.719128Q159.25342 27.172253 159.3628 27.828503Q159.47217 28.469128 159.81592 29.062878L157.97217 29.062878Q157.70654 28.516003 157.62842 27.781628ZM157.47217 23.859753Q156.51904 24.250378 154.59717 24.516003Q153.51904 24.672253 153.06592 24.875378Q152.62842 25.062878 152.37842 25.437878Q152.12842 25.812878 152.12842 26.281628Q152.12842 26.984753 152.65967 27.453503Q153.19092 27.922253 154.22217 27.922253Q155.2378 27.922253 156.01904 27.484753Q156.81592 27.031628 157.19092 26.266003Q157.47217 25.656628 157.47217 24.500378L157.47217 23.859753ZM168.95654 25.719128L170.76904 25.953503Q170.34717 27.531628 169.1753 28.422253Q168.01904 29.297253 166.20654 29.297253Q163.94092 29.297253 162.59717 27.906628Q161.26904 26.500378 161.26904 23.969128Q161.26904 21.344128 162.6128 19.906628Q163.95654 18.453503 166.1128 18.453503Q168.19092 18.453503 169.50342 19.875378Q170.83154 21.281628 170.83154 23.859753Q170.83154 24.016003 170.81592 24.328503L163.08154 24.328503Q163.1753 26.031628 164.0503 26.937878Q164.9253 27.844128 166.22217 27.844128Q167.19092 27.844128 167.8628 27.344128Q168.5503 26.828503 168.95654 25.719128ZM163.1753 22.875378L168.97217 22.875378Q168.8628 21.578503 168.31592 20.922253Q167.47217 19.906628 166.12842 19.906628Q164.9253 19.906628 164.09717 20.719128Q163.26904 21.516003 163.1753 22.875378ZM179.58154 29.062878L179.58154 27.750378Q178.59717 29.297253 176.6753 29.297253Q175.44092 29.297253 174.39404 28.609753Q173.3628 27.922253 172.78467 26.703503Q172.22217 25.484753 172.22217 23.891003Q172.22217 22.328503 172.7378 21.062878Q173.25342 19.797253 174.28467 19.125378Q175.33154 18.453503 176.59717 18.453503Q177.53467 18.453503 178.26904 18.859753Q179.00342 19.250378 179.47217 19.875378L179.47217 14.750378L181.20654 14.750378L181.20654 29.062878L179.58154 29.062878ZM174.01904 23.891003Q174.01904 25.875378 174.8628 26.859753Q175.70654 27.844128 176.84717 27.844128Q178.00342 27.844128 178.8003 26.906628Q179.6128 25.969128 179.6128 24.031628Q179.6128 21.906628 178.78467 20.906628Q177.97217 19.906628 176.76904 19.906628Q175.59717 19.906628 174.8003 20.875378Q174.01904 21.828503 174.01904 23.891003ZM190.62842 27.781628Q189.64404 28.609753 188.7378 28.953503Q187.83154 29.297253 186.8003 29.297253Q185.09717 29.297253 184.1753 28.469128Q183.25342 27.625378 183.25342 26.328503Q183.25342 25.562878 183.59717 24.937878Q183.95654 24.312878 184.51904 23.937878Q185.08154 23.547253 185.78467 23.344128Q186.3003 23.219128 187.34717 23.078503Q189.47217 22.828503 190.47217 22.484753Q190.4878 22.125378 190.4878 22.016003Q190.4878 20.953503 189.9878 20.500378Q189.31592 19.906628 187.9878 19.906628Q186.7378 19.906628 186.14404 20.344128Q185.56592 20.781628 185.28467 21.891003L183.56592 21.656628Q183.8003 20.547253 184.33154 19.875378Q184.8628 19.187878 185.87842 18.828503Q186.89404 18.453503 188.2378 18.453503Q189.56592 18.453503 190.39404 18.766003Q191.22217 19.078503 191.6128 19.562878Q192.00342 20.031628 192.15967 20.750378Q192.25342 21.203503 192.25342 22.375378L192.25342 24.719128Q192.25342 27.172253 192.3628 27.828503Q192.47217 28.469128 192.81592 29.062878L190.97217 29.062878Q190.70654 28.516003 190.62842 27.781628ZM190.47217 23.859753Q189.51904 24.250378 187.59717 24.516003Q186.51904 24.672253 186.06592 24.875378Q185.62842 25.062878 185.37842 25.437878Q185.12842 25.812878 185.12842 26.281628Q185.12842 26.984753 185.65967 27.453503Q186.19092 27.922253 187.22217 27.922253Q188.2378 27.922253 189.01904 27.484753Q189.81592 27.031628 190.19092 26.266003Q190.47217 25.656628 190.47217 24.500378L190.47217 23.859753Z" fill-rule="nonzero"/><path fill="#fbbc04" d="M221.53467 22.062878C221.53467 25.376587 218.84837 28.062878 215.53467 28.062878C212.22096 28.062878 209.53467 25.376587 209.53467 22.062878C209.53467 18.74917 212.22096 16.062878 215.53467 16.062878C218.84837 16.062878 221.53467 18.74917 221.53467 22.062878Z" fill-rule="nonzero"/><path fill="#ffffff" d="M229.50342 29.062878L235.00342 14.750378L237.0503 14.750378L242.90967 29.062878L240.75342 29.062878L239.08154 24.719128L233.09717 24.719128L231.51904 29.062878L229.50342 29.062878ZM233.64404 23.187878L238.4878 23.187878L237.00342 19.219128Q236.31592 17.406628 235.9878 16.250378Q235.70654 17.625378 235.20654 18.984753L233.64404 23.187878ZM243.81592 29.062878L243.81592 14.750378L245.56592 14.750378L245.56592 29.062878L243.81592 29.062878ZM247.81592 29.062878L247.81592 14.750378L249.56592 14.750378L249.56592 29.062878L247.81592 29.062878ZM251.8628 16.766003L251.8628 14.750378L253.62842 14.750378L253.62842 16.766003L251.8628 16.766003ZM251.8628 29.062878L251.8628 18.687878L253.62842 18.687878L253.62842 29.062878L251.8628 29.062878ZM262.95654 25.719128L264.76904 25.953503Q264.34717 27.531628 263.1753 28.422253Q262.01904 29.297253 260.20654 29.297253Q257.94092 29.297253 256.59717 27.906628Q255.26904 26.500378 255.26904 23.969128Q255.26904 21.344128 256.6128 19.906628Q257.95654 18.453503 260.1128 18.453503Q262.19092 18.453503 263.50342 19.875378Q264.83154 21.281628 264.83154 23.859753Q264.83154 24.016003 264.81592 24.328503L257.08154 24.328503Q257.1753 26.031628 258.0503 26.937878Q258.9253 27.844128 260.22217 27.844128Q261.19092 27.844128 261.8628 27.344128Q262.5503 26.828503 262.95654 25.719128ZM257.1753 22.875378L262.97217 22.875378Q262.8628 21.578503 262.31592 20.922253Q261.47217 19.906628 260.12842 19.906628Q258.9253 19.906628 258.09717 20.719128Q257.26904 21.516003 257.1753 22.875378ZM273.58154 29.062878L273.58154 27.750378Q272.59717 29.297253 270.6753 29.297253Q269.44092 29.297253 268.39404 28.609753Q267.3628 27.922253 266.78467 26.703503Q266.22217 25.484753 266.22217 23.891003Q266.22217 22.328503 266.7378 21.062878Q267.25342 19.797253 268.28467 19.125378Q269.33154 18.453503 270.59717 18.453503Q271.53467 18.453503 272.26904 18.859753Q273.00342 19.250378 273.47217 19.875378L273.47217 14.750378L275.20654 14.750378L275.20654 29.062878L273.58154 29.062878ZM268.01904 23.891003Q268.01904 25.875378 268.8628 26.859753Q269.70654 27.844128 270.84717 27.844128Q272.00342 27.844128 272.8003 26.906628Q273.6128 25.969128 273.6128 24.031628Q273.6128 21.906628 272.78467 20.906628Q271.97217 19.906628 270.76904 19.906628Q269.59717 19.906628 268.8003 20.875378Q268.01904 21.828503 268.01904 23.891003ZM283.53467 29.922253L285.2378 30.172253Q285.34717 30.969128 285.83154 31.328503Q286.4878 31.812878 287.62842 31.812878Q288.84717 31.812878 289.50342 31.328503Q290.1753 30.844128 290.40967 29.969128Q290.5503 29.422253 290.53467 27.703503Q289.37842 29.062878 287.65967 29.062878Q285.51904 29.062878 284.34717 27.516003Q283.1753 25.969128 283.1753 23.812878Q283.1753 22.328503 283.70654 21.078503Q284.25342 19.828503 285.26904 19.141003Q286.3003 18.453503 287.6753 18.453503Q289.50342 18.453503 290.70654 19.937878L290.70654 18.687878L292.31592 18.687878L292.31592 27.656628Q292.31592 30.078503 291.81592 31.078503Q291.33154 32.094128 290.25342 32.672253Q289.19092 33.266003 287.62842 33.266003Q285.78467 33.266003 284.62842 32.437878Q283.4878 31.609753 283.53467 29.922253ZM284.9878 23.687878Q284.9878 25.734753 285.8003 26.672253Q286.6128 27.609753 287.83154 27.609753Q289.03467 27.609753 289.84717 26.672253Q290.6753 25.734753 290.6753 23.750378Q290.6753 21.844128 289.83154 20.875378Q288.9878 19.906628 287.8003 19.906628Q286.62842 19.906628 285.8003 20.859753Q284.9878 21.812878 284.9878 23.687878ZM294.83154 29.062878L294.83154 18.687878L296.40967 18.687878L296.40967 20.266003Q297.01904 19.156628 297.53467 18.812878Q298.0503 18.453503 298.65967 18.453503Q299.5503 18.453503 300.47217 19.016003L299.8628 20.656628Q299.22217 20.266003 298.58154 20.266003Q298.00342 20.266003 297.53467 20.625378Q297.08154 20.969128 296.87842 21.578503Q296.59717 22.516003 296.59717 23.625378L296.59717 29.062878L294.83154 29.062878ZM301.20654 23.875378Q301.20654 21.000378 302.8003 19.609753Q304.14404 18.453503 306.06592 18.453503Q308.20654 18.453503 309.5503 19.859753Q310.90967 21.266003 310.90967 23.734753Q310.90967 25.734753 310.31592 26.891003Q309.72217 28.031628 308.56592 28.672253Q307.4253 29.297253 306.06592 29.297253Q303.87842 29.297253 302.53467 27.906628Q301.20654 26.500378 301.20654 23.875378ZM303.00342 23.875378Q303.00342 25.875378 303.8628 26.859753Q304.7378 27.844128 306.06592 27.844128Q307.37842 27.844128 308.2378 26.859753Q309.1128 25.859753 309.1128 23.812878Q309.1128 21.891003 308.2378 20.906628Q307.3628 19.906628 306.06592 19.906628Q304.7378 19.906628 303.8628 20.906628Q303.00342 21.891003 303.00342 23.875378ZM319.64404 29.062878L319.64404 27.531628Q318.44092 29.297253 316.3628 29.297253Q315.44092 29.297253 314.64404 28.953503Q313.84717 28.594128 313.45654 28.062878Q313.08154 27.531628 312.9253 26.750378Q312.81592 26.234753 312.81592 25.109753L312.81592 18.687878L314.56592 18.687878L314.56592 24.437878Q314.56592 25.812878 314.6753 26.297253Q314.84717 26.984753 315.37842 27.391003Q315.9253 27.781628 316.70654 27.781628Q317.50342 27.781628 318.19092 27.375378Q318.89404 26.969128 319.1753 26.281628Q319.47217 25.578503 319.47217 24.250378L319.47217 18.687878L321.22217 18.687878L321.22217 29.062878L319.64404 29.062878ZM322.84717 33.031628L322.84717 18.687878L324.45654 18.687878L324.45654 20.031628Q325.01904 19.250378 325.72217 18.859753Q326.44092 18.453503 327.45654 18.453503Q328.78467 18.453503 329.8003 19.141003Q330.81592 19.828503 331.33154 21.078503Q331.8628 22.312878 331.8628 23.797253Q331.8628 25.391003 331.28467 26.672253Q330.72217 27.937878 329.62842 28.625378Q328.53467 29.297253 327.33154 29.297253Q326.45654 29.297253 325.75342 28.922253Q325.06592 28.547253 324.6128 27.984753L324.6128 33.031628L322.84717 33.031628ZM324.44092 23.937878Q324.44092 25.937878 325.25342 26.891003Q326.06592 27.844128 327.22217 27.844128Q328.39404 27.844128 329.22217 26.859753Q330.06592 25.875378 330.06592 23.781628Q330.06592 21.812878 329.2378 20.828503Q328.4253 19.828503 327.3003 19.828503Q326.1753 19.828503 325.3003 20.891003Q324.44092 21.937878 324.44092 23.937878ZM333.14404 25.969128L334.89404 25.687878Q335.03467 26.734753 335.70654 27.297253Q336.37842 27.844128 337.58154 27.844128Q338.78467 27.844128 339.3628 27.359753Q339.95654 26.859753 339.95654 26.203503Q339.95654 25.609753 339.44092 25.266003Q339.08154 25.031628 337.64404 24.672253Q335.70654 24.172253 334.95654 23.828503Q334.22217 23.469128 333.83154 22.844128Q333.44092 22.203503 333.44092 21.437878Q333.44092 20.750378 333.75342 20.156628Q334.08154 19.562878 334.62842 19.172253Q335.03467 18.875378 335.7378 18.672253Q336.45654 18.453503 337.26904 18.453503Q338.4878 18.453503 339.40967 18.812878Q340.33154 19.156628 340.76904 19.766003Q341.20654 20.359753 341.37842 21.359753L339.65967 21.594128Q339.53467 20.797253 338.97217 20.359753Q338.40967 19.906628 337.39404 19.906628Q336.1753 19.906628 335.65967 20.312878Q335.14404 20.703503 335.14404 21.234753Q335.14404 21.578503 335.3628 21.859753Q335.56592 22.141003 336.03467 22.328503Q336.3003 22.422253 337.58154 22.766003Q339.45654 23.266003 340.19092 23.594128Q340.9253 23.906628 341.34717 24.516003Q341.76904 25.109753 341.76904 26.016003Q341.76904 26.891003 341.25342 27.672253Q340.7378 28.453503 339.76904 28.875378Q338.8003 29.297253 337.58154 29.297253Q335.56592 29.297253 334.50342 28.453503Q333.44092 27.609753 333.14404 25.969128Z" fill-rule="nonzero"/></svg>