<svg version="1.1" viewBox="0.0 0.0 600.0 371.0" fill="none" stroke="none" stroke-linecap="square" stroke-miterlimit="10" width="600" height="371" xmlns:xlink="http://www.w3.org/1999/xlink" xmlns="http://www.w3.org/2000/svg"><path fill="#000000" d="M0 0L600.0 0L600.0 371.0L0 371.0L0 0Z" fill-rule="nonzero"/><path fill="#4285f4" d="M300.0 18.55C359.64548 18.55 414.7602 50.37049 444.58295 102.025L372.29147 143.7625C357.3801 117.93524 329.82275 102.025 300.0 102.025Z" fill-rule="nonzero"/><path fill="#fbbc04" d="M216.525 330.08295C151.08594 292.3017 119.18166 215.27795 138.73868 142.29016C158.2957 69.302376 224.43748 18.55 300.0 18.55L300.0 102.025C262.21875 102.025 229.14786 127.401184 219.36934 163.89508C209.59084 200.38898 225.54297 238.90085 258.2625 257.79147Z" fill-rule="nonzero"/><path fill="#ea4335" d="M444.58295 102.025C482.3642 167.46407 471.48224 250.12071 418.05148 303.55148C364.6207 356.98224 281.96405 367.8642 216.525 330.08295L258.2625 257.79147C290.98203 276.6821 332.31036 271.24112 359.02573 244.52574C385.74112 217.81035 391.1821 176.48203 372.29147 143.7625Z" fill-rule="nonzero"/><path fill="#ffffff" d="M18.534374 139.95065L21.83125 131.3569L23.05 131.3569L26.565624 139.95065L25.284374 139.95065L24.26875 137.34128L20.690624 137.34128L19.7375 139.95065L18.534374 139.95065ZM21.01875 136.4194L23.925 136.4194L23.034374 134.0444Q22.6125 132.96628 22.425 132.26315Q22.253124 133.09128 21.95625 133.90378L21.01875 136.4194ZM26.315624 139.95065L26.315624 131.3569L27.378124 131.3569L27.378124 139.95065L26.315624 139.95065ZM29.315624 139.95065L29.315624 131.3569L30.378124 131.3569L30.378124 139.95065L29.315624 139.95065ZM32.346874 132.57565L32.346874 131.3569L33.409374 131.3569L33.409374 132.57565L32.346874 132.57565ZM32.346874 139.95065L32.346874 133.7319L33.409374 133.7319L33.409374 139.95065L32.346874 139.95065ZM39.596874 137.95065L40.690624 138.07565Q40.440624 139.02878 39.7375 139.56003Q39.034374 140.09128 37.95625 140.09128Q36.596874 140.09128 35.784374 139.24753Q34.9875 138.40378 34.9875 136.88815Q34.9875 135.32565 35.8 134.46628Q36.6125 133.59128 37.89375 133.59128Q39.14375 133.59128 39.925 134.43503Q40.721874 135.27878 40.721874 136.82565Q40.721874 136.9194 40.721874 137.1069L36.08125 137.1069Q36.14375 138.13815 36.659374 138.68503Q37.175 139.21628 37.95625 139.21628Q38.534374 139.21628 38.940624 138.9194Q39.3625 138.6069 39.596874 137.95065ZM36.14375 136.24753L39.6125 136.24753Q39.55 135.45065 39.221874 135.06003Q38.70625 134.45065 37.909374 134.45065Q37.175 134.45065 36.675 134.93503Q36.190624 135.4194 36.14375 136.24753ZM46.378124 139.95065L46.378124 139.1694Q45.784374 140.09128 44.64375 140.09128Q43.89375 140.09128 43.26875 139.68503Q42.64375 139.26315 42.3 138.52878Q41.95625 137.7944 41.95625 136.84128Q41.95625 135.9194 42.26875 135.15378Q42.58125 134.38815 43.20625 133.99753Q43.83125 133.59128 44.596874 133.59128Q45.159374 133.59128 45.596874 133.82565Q46.034374 134.06003 46.315624 134.43503L46.315624 131.3569L47.3625 131.3569L47.3625 139.95065L46.378124 139.95065ZM43.05 136.84128Q43.05 138.0444 43.55 138.63815Q44.05 139.21628 44.7375 139.21628Q45.425 139.21628 45.909374 138.65378Q46.39375 138.09128 46.39375 136.93503Q46.39375 135.65378 45.89375 135.06003Q45.409374 134.46628 44.690624 134.46628Q43.9875 134.46628 43.51875 135.0444Q43.05 135.6069 43.05 136.84128ZM52.14375 140.46628L53.175 140.62253Q53.2375 141.09128 53.534374 141.31003Q53.925 141.6069 54.596874 141.6069Q55.33125 141.6069 55.721874 141.31003Q56.128124 141.01315 56.26875 140.49753Q56.3625 140.1694 56.346874 139.13815Q55.659374 139.95065 54.628124 139.95065Q53.346874 139.95065 52.64375 139.02878Q51.940624 138.09128 51.940624 136.81003Q51.940624 135.9194 52.253124 135.1694Q52.58125 134.40378 53.190624 133.99753Q53.8 133.59128 54.628124 133.59128Q55.7375 133.59128 56.45625 134.4819L56.45625 133.7319L57.425 133.7319L57.425 139.1069Q57.425 140.56003 57.128124 141.1694Q56.83125 141.77878 56.190624 142.12253Q55.55 142.4819 54.6125 142.4819Q53.503124 142.4819 52.815624 141.9819Q52.128124 141.4819 52.14375 140.46628ZM53.01875 136.7319Q53.01875 137.95065 53.503124 138.51315Q53.9875 139.07565 54.721874 139.07565Q55.45625 139.07565 55.940624 138.51315Q56.440624 137.95065 56.440624 136.76315Q56.440624 135.62253 55.925 135.0444Q55.425 134.46628 54.70625 134.46628Q54.003124 134.46628 53.503124 135.0444Q53.01875 135.6069 53.01875 136.7319ZM59.33125 139.95065L59.33125 133.7319L60.284374 133.7319L60.284374 134.6694Q60.64375 134.01315 60.940624 133.81003Q61.253124 133.59128 61.628124 133.59128Q62.159374 133.59128 62.70625 133.9194L62.346874 134.90378Q61.95625 134.6694 61.58125 134.6694Q61.221874 134.6694 60.940624 134.88815Q60.675 135.09128 60.565624 135.46628Q60.378124 136.02878 60.378124 136.68503L60.378124 139.95065L59.33125 139.95065ZM62.95625 136.84128Q62.95625 135.1069 63.909374 134.27878Q64.70625 133.59128 65.8625 133.59128Q67.14375 133.59128 67.95625 134.43503Q68.78438 135.26315 68.78438 136.74753Q68.78438 137.95065 68.425 138.63815Q68.06563 139.32565 67.3625 139.71628Q66.675 140.09128 65.8625 140.09128Q64.56563 140.09128 63.753124 139.26315Q62.95625 138.4194 62.95625 136.84128ZM64.03438 136.84128Q64.03438 138.02878 64.55 138.62253Q65.08125 139.21628 65.8625 139.21628Q66.65938 139.21628 67.175 138.62253Q67.69063 138.02878 67.69063 136.81003Q67.69063 135.65378 67.15938 135.06003Q66.64375 134.46628 65.8625 134.46628Q65.08125 134.46628 64.55 135.06003Q64.03438 135.63815 64.03438 136.84128ZM74.425 139.95065L74.425 139.02878Q73.69063 140.09128 72.44063 140.09128Q71.89375 140.09128 71.40938 139.88815Q70.94063 139.6694 70.70625 139.3569Q70.47188 139.02878 70.37813 138.56003Q70.31563 138.26315 70.31563 137.57565L70.31563 133.7319L71.37813 133.7319L71.37813 137.18503Q71.37813 137.99753 71.44063 138.2944Q71.53438 138.70065 71.84688 138.95065Q72.175 139.18503 72.65938 139.18503Q73.12813 139.18503 73.53438 138.95065Q73.95625 138.70065 74.12813 138.27878Q74.31563 137.8569 74.31563 137.06003L74.31563 133.7319L75.3625 133.7319L75.3625 139.95065L74.425 139.95065ZM77.34688 142.34128L77.34688 133.7319L78.3 133.7319L78.3 134.52878Q78.64375 134.06003 79.06563 133.82565Q79.50313 133.59128 80.1125 133.59128Q80.90938 133.59128 81.51875 133.99753Q82.12813 134.40378 82.425 135.15378Q82.7375 135.90378 82.7375 136.7944Q82.7375 137.74753 82.39375 138.51315Q82.06563 139.27878 81.40938 139.68503Q80.75313 140.09128 80.03438 140.09128Q79.50313 140.09128 79.08125 139.87253Q78.65938 139.63815 78.39375 139.31003L78.39375 142.34128L77.34688 142.34128ZM78.3 136.87253Q78.3 138.07565 78.78438 138.65378Q79.26875 139.21628 79.95625 139.21628Q80.65938 139.21628 81.15938 138.62253Q81.65938 138.02878 81.65938 136.77878Q81.65938 135.59128 81.175 135.01315Q80.69063 134.4194 80.00313 134.4194Q79.33125 134.4194 78.81563 135.0444Q78.3 135.6694 78.3 136.87253ZM83.925 138.09128L84.95625 137.93503Q85.05 138.56003 85.44063 138.88815Q85.84688 139.21628 86.58125 139.21628Q87.3 139.21628 87.64375 138.93503Q88.00313 138.63815 88.00313 138.2319Q88.00313 137.87253 87.69063 137.6694Q87.47188 137.52878 86.6125 137.31003Q85.45625 137.01315 85.00313 136.81003Q84.56563 136.59128 84.33125 136.21628Q84.09688 135.84128 84.09688 135.37253Q84.09688 134.96628 84.28438 134.6069Q84.47188 134.24753 84.8 134.01315Q85.05 133.84128 85.47188 133.71628Q85.89375 133.59128 86.39375 133.59128Q87.1125 133.59128 87.65938 133.81003Q88.22188 134.01315 88.4875 134.37253Q88.75313 134.7319 88.84688 135.32565L87.81563 135.46628Q87.75313 134.99753 87.40938 134.7319Q87.08125 134.45065 86.45625 134.45065Q85.7375 134.45065 85.425 134.70065Q85.1125 134.93503 85.1125 135.26315Q85.1125 135.46628 85.2375 135.62253Q85.37813 135.7944 85.64375 135.90378Q85.8 135.96628 86.58125 136.1694Q87.70625 136.4819 88.14375 136.6694Q88.58125 136.8569 88.83125 137.21628Q89.08125 137.57565 89.08125 138.12253Q89.08125 138.65378 88.76875 139.12253Q88.47188 139.57565 87.89375 139.84128Q87.31563 140.09128 86.58125 140.09128Q85.3625 140.09128 84.72188 139.59128Q84.09688 139.07565 83.925 138.09128Z" fill-rule="nonzero"/><path fill="#616161" d="M22.425 156.95065L22.425 154.88815L18.70625 154.88815L18.70625 153.9194L22.628124 148.3569L23.4875 148.3569L23.4875 153.9194L24.64375 153.9194L24.64375 154.88815L23.4875 154.88815L23.4875 156.95065L22.425 156.95065ZM22.425 153.9194L22.425 150.06003L19.7375 153.9194L22.425 153.9194ZM30.01875 156.95065L28.971874 156.95065L28.971874 150.2319Q28.58125 150.59128 27.95625 150.96628Q27.346874 151.32565 26.8625 151.49753L26.8625 150.4819Q27.7375 150.06003 28.39375 149.4819Q29.065624 148.88815 29.346874 148.32565L30.01875 148.32565L30.01875 156.95065ZM33.64375 156.95065L33.64375 155.74753L34.846874 155.74753L34.846874 156.95065L33.64375 156.95065ZM36.1125 149.4819L36.1125 148.46628L41.675 148.46628L41.675 149.2944Q40.8625 150.1694 40.05 151.62253Q39.253124 153.06003 38.815624 154.59128Q38.4875 155.6694 38.409374 156.95065L37.315624 156.95065Q37.33125 155.93503 37.70625 154.49753Q38.096874 153.06003 38.8 151.7319Q39.51875 150.40378 40.33125 149.4819L36.1125 149.4819ZM43.253124 150.4194Q43.253124 149.49753 43.70625 148.8569Q44.175 148.21628 45.05 148.21628Q45.8625 148.21628 46.39375 148.7944Q46.925 149.37253 46.925 150.4819Q46.925 151.57565 46.378124 152.1694Q45.846874 152.74753 45.065624 152.74753Q44.284374 152.74753 43.76875 152.1694Q43.253124 151.59128 43.253124 150.4194ZM45.08125 148.93503Q44.690624 148.93503 44.425 149.27878Q44.175 149.62253 44.175 150.52878Q44.175 151.3569 44.425 151.70065Q44.690624 152.02878 45.08125 152.02878Q45.4875 152.02878 45.7375 151.68503Q46.003124 151.34128 46.003124 150.45065Q46.003124 149.6069 45.7375 149.27878Q45.471874 148.93503 45.08125 148.93503ZM45.08125 157.26315L49.784374 148.21628L50.64375 148.21628L45.95625 157.26315L45.08125 157.26315ZM48.8 154.93503Q48.8 154.01315 49.253124 153.37253Q49.721874 152.7319 50.6125 152.7319Q51.425 152.7319 51.95625 153.31003Q52.4875 153.87253 52.4875 154.99753Q52.4875 156.09128 51.940624 156.68503Q51.409374 157.26315 50.6125 157.26315Q49.846874 157.26315 49.315624 156.68503Q48.8 156.1069 48.8 154.93503ZM50.64375 153.45065Q50.2375 153.45065 49.971874 153.7944Q49.721874 154.13815 49.721874 155.0444Q49.721874 155.8569 49.9875 156.20065Q50.253124 156.5444 50.64375 156.5444Q51.034374 156.5444 51.3 156.20065Q51.565624 155.8569 51.565624 154.95065Q51.565624 154.12253 51.3 153.7944Q51.034374 153.45065 50.64375 153.45065Z" fill-rule="nonzero"/><path stroke="#8a8a8a" stroke-width="1.0" stroke-linecap="butt" d="M18.55 144.45065L127.05 144.45065L146.80174 144.45065" fill-rule="nonzero"/><path fill="#616161" d="M148.80174 144.45065C148.80174 143.34608 147.90631 142.45065 146.80174 142.45065C145.69717 142.45065 144.80174 143.34608 144.80174 144.45065C144.80174 145.55522 145.69717 146.45065 146.80174 146.45065C147.90631 146.45065 148.80174 145.55522 148.80174 144.45065" fill-rule="nonzero"/><path fill="#ffffff" d="M560.575 43.646206L560.575 35.052456L561.7 35.052456L561.7 43.646206L560.575 43.646206ZM562.9969 40.88058L564.0594 40.78683Q564.1375 41.44308 564.41876 41.84933Q564.7 42.25558 565.27814 42.521206Q565.8719 42.771206 566.60626 42.771206Q567.2469 42.771206 567.7469 42.583706Q568.2469 42.38058 568.48126 42.052456Q568.73126 41.708706 568.73126 41.31808Q568.73126 40.91183 568.4969 40.614956Q568.2625 40.302456 567.73126 40.09933Q567.3719 39.958706 566.1844 39.677456Q565.0125 39.396206 564.54376 39.146206Q563.91876 38.81808 563.6219 38.34933Q563.325 37.864956 563.325 37.271206Q563.325 36.63058 563.6844 36.06808Q564.0594 35.489956 564.7625 35.208706Q565.48126 34.91183 566.34064 34.91183Q567.29376 34.91183 568.02814 35.22433Q568.7625 35.521206 569.15314 36.13058Q569.54376 36.72433 569.575 37.47433L568.48126 37.552456Q568.3875 36.739956 567.8719 36.333706Q567.3719 35.91183 566.3875 35.91183Q565.35626 35.91183 564.8875 36.28683Q564.41876 36.66183 564.41876 37.19308Q564.41876 37.66183 564.7469 37.958706Q565.075 38.25558 566.45 38.56808Q567.84064 38.88058 568.35626 39.114956Q569.10626 39.47433 569.46564 40.00558Q569.825 40.521206 569.825 41.22433Q569.825 41.91183 569.4344 42.521206Q569.04376 43.114956 568.3094 43.458706Q567.575 43.78683 566.65314 43.78683Q565.48126 43.78683 564.6844 43.458706Q563.90314 43.114956 563.45 42.427456Q563.0125 41.739956 562.9969 40.88058ZM571.575 43.646206L571.575 35.052456L572.7 35.052456L572.7 43.646206L571.575 43.646206ZM573.9969 40.88058L575.0594 40.78683Q575.1375 41.44308 575.41876 41.84933Q575.7 42.25558 576.27814 42.521206Q576.8719 42.771206 577.60626 42.771206Q578.2469 42.771206 578.7469 42.583706Q579.2469 42.38058 579.48126 42.052456Q579.73126 41.708706 579.73126 41.31808Q579.73126 40.91183 579.4969 40.614956Q579.2625 40.302456 578.73126 40.09933Q578.3719 39.958706 577.1844 39.677456Q576.0125 39.396206 575.54376 39.146206Q574.91876 38.81808 574.6219 38.34933Q574.325 37.864956 574.325 37.271206Q574.325 36.63058 574.6844 36.06808Q575.0594 35.489956 575.7625 35.208706Q576.48126 34.91183 577.34064 34.91183Q578.29376 34.91183 579.02814 35.22433Q579.7625 35.521206 580.15314 36.13058Q580.54376 36.72433 580.575 37.47433L579.48126 37.552456Q579.3875 36.739956 578.8719 36.333706Q578.3719 35.91183 577.3875 35.91183Q576.35626 35.91183 575.8875 36.28683Q575.41876 36.66183 575.41876 37.19308Q575.41876 37.66183 575.7469 37.958706Q576.075 38.25558 577.45 38.56808Q578.84064 38.88058 579.35626 39.114956Q580.10626 39.47433 580.46564 40.00558Q580.825 40.521206 580.825 41.22433Q580.825 41.91183 580.4344 42.521206Q580.04376 43.114956 579.3094 43.458706Q578.575 43.78683 577.65314 43.78683Q576.48126 43.78683 575.6844 43.458706Q574.90314 43.114956 574.45 42.427456Q574.0125 41.739956 573.9969 40.88058Z" fill-rule="nonzero"/><path fill="#616161" d="M550.91876 60.646206L549.8719 60.646206L549.8719 53.927456Q549.48126 54.28683 548.85626 54.66183Q548.2469 55.021206 547.7625 55.19308L547.7625 54.177456Q548.6375 53.75558 549.29376 53.177456Q549.96564 52.583706 550.2469 52.021206L550.91876 52.021206L550.91876 60.646206ZM559.41876 54.16183L558.3719 54.239956Q558.23126 53.614956 557.98126 53.333706Q557.54376 52.88058 556.91876 52.88058Q556.41876 52.88058 556.02814 53.16183Q555.54376 53.53683 555.2469 54.239956Q554.96564 54.927456 554.95 56.208706Q555.325 55.63058 555.8719 55.34933Q556.4344 55.06808 557.04376 55.06808Q558.09064 55.06808 558.825 55.84933Q559.575 56.63058 559.575 57.84933Q559.575 58.66183 559.21564 59.364956Q558.8719 60.052456 558.2625 60.427456Q557.65314 60.78683 556.8875 60.78683Q555.5594 60.78683 554.73126 59.81808Q553.90314 58.84933 553.90314 56.63058Q553.90314 54.13058 554.825 53.00558Q555.6219 52.021206 556.98126 52.021206Q557.9969 52.021206 558.6375 52.59933Q559.29376 53.16183 559.41876 54.16183ZM555.1219 57.864956Q555.1219 58.41183 555.34064 58.91183Q555.575 59.396206 555.98126 59.66183Q556.40314 59.927456 556.8719 59.927456Q557.52814 59.927456 558.0125 59.396206Q558.4969 58.84933 558.4969 57.927456Q558.4969 57.03683 558.0125 56.521206Q557.54376 56.00558 556.825 56.00558Q556.10626 56.00558 555.60626 56.521206Q555.1219 57.03683 555.1219 57.864956ZM561.54376 60.646206L561.54376 59.44308L562.7469 59.44308L562.7469 60.646206L561.54376 60.646206ZM564.0125 53.177456L564.0125 52.16183L569.575 52.16183L569.575 52.989956Q568.7625 53.864956 567.95 55.31808Q567.15314 56.75558 566.71564 58.28683Q566.3875 59.364956 566.3094 60.646206L565.21564 60.646206Q565.23126 59.63058 565.60626 58.19308Q565.9969 56.75558 566.7 55.427456Q567.41876 54.09933 568.23126 53.177456L564.0125 53.177456ZM571.15314 54.114956Q571.15314 53.19308 571.60626 52.552456Q572.075 51.91183 572.95 51.91183Q573.7625 51.91183 574.29376 52.489956Q574.825 53.06808 574.825 54.177456Q574.825 55.271206 574.27814 55.864956Q573.7469 56.44308 572.96564 56.44308Q572.1844 56.44308 571.66876 55.864956Q571.15314 55.28683 571.15314 54.114956ZM572.98126 52.63058Q572.59064 52.63058 572.325 52.97433Q572.075 53.31808 572.075 54.22433Q572.075 55.052456 572.325 55.396206Q572.59064 55.72433 572.98126 55.72433Q573.3875 55.72433 573.6375 55.38058Q573.90314 55.03683 573.90314 54.146206Q573.90314 53.302456 573.6375 52.97433Q573.3719 52.63058 572.98126 52.63058ZM572.98126 60.958706L577.6844 51.91183L578.54376 51.91183L573.85626 60.958706L572.98126 60.958706ZM576.7 58.63058Q576.7 57.708706 577.15314 57.06808Q577.6219 56.427456 578.5125 56.427456Q579.325 56.427456 579.85626 57.00558Q580.3875 57.56808 580.3875 58.69308Q580.3875 59.78683 579.84064 60.38058Q579.3094 60.958706 578.5125 60.958706Q577.7469 60.958706 577.21564 60.38058Q576.7 59.802456 576.7 58.63058ZM578.54376 57.146206Q578.1375 57.146206 577.8719 57.489956Q577.6219 57.833706 577.6219 58.739956Q577.6219 59.552456 577.8875 59.896206Q578.15314 60.239956 578.54376 60.239956Q578.9344 60.239956 579.2 59.896206Q579.46564 59.552456 579.46564 58.646206Q579.46564 57.81808 579.2 57.489956Q578.9344 57.146206 578.54376 57.146206Z" fill-rule="nonzero"/><path stroke="#8a8a8a" stroke-width="1.0" stroke-linecap="butt" d="M581.45 48.146206L472.95 48.146206L379.30124 48.146206" fill-rule="nonzero"/><path fill="#616161" d="M381.30124 48.146206C381.30124 47.041637 380.40582 46.146206 379.30124 46.146206C378.1967 46.146206 377.30124 47.041637 377.30124 48.146206C377.30124 49.250774 378.1967 50.146206 379.30124 50.146206C380.40582 50.146206 381.30124 49.250774 381.30124 48.146206" fill-rule="nonzero"/><path fill="#ffffff" d="M531.4344 293.1489L534.73126 284.55515L535.95 284.55515L539.46564 293.1489L538.1844 293.1489L537.16876 290.53952L533.59064 290.53952L532.6375 293.1489L531.4344 293.1489ZM533.91876 289.61765L536.825 289.61765L535.9344 287.24265Q535.5125 286.16452 535.325 285.4614Q535.15314 286.28952 534.85626 287.10202L533.91876 289.61765ZM539.21564 293.1489L539.21564 284.55515L540.27814 284.55515L540.27814 293.1489L539.21564 293.1489ZM551.8875 292.22702Q552.6844 292.7739 553.34064 293.0239L553.0125 293.82077Q552.09064 293.47702 551.16876 292.75827Q550.21564 293.28952 549.0594 293.28952Q547.8875 293.28952 546.9344 292.72702Q545.9969 292.16452 545.48126 291.1489Q544.96564 290.13327 544.96564 288.85202Q544.96564 287.5864 545.48126 286.53952Q545.9969 285.49265 546.95 284.94577Q547.90314 284.3989 549.075 284.3989Q550.2625 284.3989 551.21564 284.97702Q552.1844 285.53952 552.6844 286.55515Q553.1844 287.57077 553.1844 288.85202Q553.1844 289.91452 552.85626 290.75827Q552.54376 291.60202 551.8875 292.22702ZM549.3875 290.7739Q550.3719 291.05515 551.0125 291.60202Q552.0125 290.68015 552.0125 288.85202Q552.0125 287.80515 551.65314 287.0239Q551.29376 286.24265 550.60626 285.82077Q549.9344 285.38327 549.09064 285.38327Q547.8094 285.38327 546.96564 286.25827Q546.1375 287.11765 546.1375 288.85202Q546.1375 290.5239 546.96564 291.43015Q547.79376 292.32077 549.09064 292.32077Q549.7 292.32077 550.23126 292.0864Q549.7 291.74265 549.10626 291.60202L549.3875 290.7739ZM558.3094 292.38327Q557.71564 292.88327 557.16876 293.0864Q556.6375 293.28952 556.0125 293.28952Q554.98126 293.28952 554.4344 292.78952Q553.8875 292.28952 553.8875 291.50827Q553.8875 291.05515 554.09064 290.68015Q554.29376 290.28952 554.6375 290.07077Q554.98126 289.8364 555.40314 289.72702Q555.7 289.63327 556.34064 289.55515Q557.60626 289.41452 558.21564 289.19577Q558.21564 288.97702 558.21564 288.93015Q558.21564 288.2739 557.91876 288.00827Q557.5125 287.66452 556.71564 287.66452Q555.98126 287.66452 555.6219 287.93015Q555.2625 288.18015 555.09064 288.8364L554.0594 288.69577Q554.2 288.03952 554.52814 287.63327Q554.85626 287.22702 555.46564 287.00827Q556.075 286.78952 556.8719 286.78952Q557.66876 286.78952 558.16876 286.97702Q558.66876 287.16452 558.90314 287.44577Q559.1375 287.72702 559.23126 288.16452Q559.27814 288.43015 559.27814 289.13327L559.27814 290.53952Q559.27814 292.00827 559.34064 292.3989Q559.41876 292.78952 559.6219 293.1489L558.5125 293.1489Q558.35626 292.82077 558.3094 292.38327ZM558.21564 290.0239Q557.6375 290.25827 556.4969 290.43015Q555.84064 290.5239 555.575 290.6489Q555.3094 290.75827 555.15314 290.97702Q555.0125 291.19577 555.0125 291.47702Q555.0125 291.8989 555.325 292.18015Q555.65314 292.4614 556.2625 292.4614Q556.8719 292.4614 557.34064 292.19577Q557.825 291.93015 558.04376 291.4614Q558.21564 291.10202 558.21564 290.41452L558.21564 290.0239ZM565.4969 291.1489L566.59064 291.2739Q566.34064 292.22702 565.6375 292.75827Q564.9344 293.28952 563.85626 293.28952Q562.4969 293.28952 561.6844 292.44577Q560.8875 291.60202 560.8875 290.0864Q560.8875 288.5239 561.7 287.66452Q562.5125 286.78952 563.79376 286.78952Q565.04376 286.78952 565.825 287.63327Q566.6219 288.47702 566.6219 290.0239Q566.6219 290.11765 566.6219 290.30515L561.98126 290.30515Q562.04376 291.3364 562.5594 291.88327Q563.075 292.41452 563.85626 292.41452Q564.4344 292.41452 564.84064 292.11765Q565.2625 291.80515 565.4969 291.1489ZM562.04376 289.44577L565.5125 289.44577Q565.45 288.6489 565.1219 288.25827Q564.60626 287.6489 563.8094 287.6489Q563.075 287.6489 562.575 288.13327Q562.09064 288.61765 562.04376 289.44577ZM572.27814 293.1489L572.27814 292.36765Q571.6844 293.28952 570.54376 293.28952Q569.79376 293.28952 569.16876 292.88327Q568.54376 292.4614 568.2 291.72702Q567.85626 290.99265 567.85626 290.03952Q567.85626 289.11765 568.16876 288.35202Q568.48126 287.5864 569.10626 287.19577Q569.73126 286.78952 570.4969 286.78952Q571.0594 286.78952 571.4969 287.0239Q571.9344 287.25827 572.21564 287.63327L572.21564 284.55515L573.2625 284.55515L573.2625 293.1489L572.27814 293.1489ZM568.95 290.03952Q568.95 291.24265 569.45 291.8364Q569.95 292.41452 570.6375 292.41452Q571.325 292.41452 571.8094 291.85202Q572.29376 291.28952 572.29376 290.13327Q572.29376 288.85202 571.79376 288.25827Q571.3094 287.66452 570.59064 287.66452Q569.8875 287.66452 569.41876 288.24265Q568.95 288.80515 568.95 290.03952ZM579.3094 292.38327Q578.71564 292.88327 578.16876 293.0864Q577.6375 293.28952 577.0125 293.28952Q575.98126 293.28952 575.4344 292.78952Q574.8875 292.28952 574.8875 291.50827Q574.8875 291.05515 575.09064 290.68015Q575.29376 290.28952 575.6375 290.07077Q575.98126 289.8364 576.40314 289.72702Q576.7 289.63327 577.34064 289.55515Q578.60626 289.41452 579.21564 289.19577Q579.21564 288.97702 579.21564 288.93015Q579.21564 288.2739 578.91876 288.00827Q578.5125 287.66452 577.71564 287.66452Q576.98126 287.66452 576.6219 287.93015Q576.2625 288.18015 576.09064 288.8364L575.0594 288.69577Q575.2 288.03952 575.52814 287.63327Q575.85626 287.22702 576.46564 287.00827Q577.075 286.78952 577.8719 286.78952Q578.66876 286.78952 579.16876 286.97702Q579.66876 287.16452 579.90314 287.44577Q580.1375 287.72702 580.23126 288.16452Q580.27814 288.43015 580.27814 289.13327L580.27814 290.53952Q580.27814 292.00827 580.34064 292.3989Q580.41876 292.78952 580.6219 293.1489L579.5125 293.1489Q579.35626 292.82077 579.3094 292.38327ZM579.21564 290.0239Q578.6375 290.25827 577.4969 290.43015Q576.84064 290.5239 576.575 290.6489Q576.3094 290.75827 576.15314 290.97702Q576.0125 291.19577 576.0125 291.47702Q576.0125 291.8989 576.325 292.18015Q576.65314 292.4614 577.2625 292.4614Q577.8719 292.4614 578.34064 292.19577Q578.825 291.93015 579.04376 291.4614Q579.21564 291.10202 579.21564 290.41452L579.21564 290.0239Z" fill-rule="nonzero"/><path fill="#616161" d="M550.325 310.1489L550.325 308.0864L546.60626 308.0864L546.60626 307.11765L550.52814 301.55515L551.3875 301.55515L551.3875 307.11765L552.54376 307.11765L552.54376 308.0864L551.3875 308.0864L551.3875 310.1489L550.325 310.1489ZM550.325 307.11765L550.325 303.25827L547.6375 307.11765L550.325 307.11765ZM557.91876 310.1489L556.8719 310.1489L556.8719 303.43015Q556.48126 303.78952 555.85626 304.16452Q555.2469 304.5239 554.7625 304.69577L554.7625 303.68015Q555.6375 303.25827 556.29376 302.68015Q556.96564 302.0864 557.2469 301.5239L557.91876 301.5239L557.91876 310.1489ZM561.54376 310.1489L561.54376 308.94577L562.7469 308.94577L562.7469 310.1489L561.54376 310.1489ZM564.0125 302.68015L564.0125 301.66452L569.575 301.66452L569.575 302.49265Q568.7625 303.36765 567.95 304.82077Q567.15314 306.25827 566.71564 307.78952Q566.3875 308.86765 566.3094 310.1489L565.21564 310.1489Q565.23126 309.13327 565.60626 307.69577Q565.9969 306.25827 566.7 304.93015Q567.41876 303.60202 568.23126 302.68015L564.0125 302.68015ZM571.15314 303.61765Q571.15314 302.69577 571.60626 302.05515Q572.075 301.41452 572.95 301.41452Q573.7625 301.41452 574.29376 301.99265Q574.825 302.57077 574.825 303.68015Q574.825 304.7739 574.27814 305.36765Q573.7469 305.94577 572.96564 305.94577Q572.1844 305.94577 571.66876 305.36765Q571.15314 304.78952 571.15314 303.61765ZM572.98126 302.13327Q572.59064 302.13327 572.325 302.47702Q572.075 302.82077 572.075 303.72702Q572.075 304.55515 572.325 304.8989Q572.59064 305.22702 572.98126 305.22702Q573.3875 305.22702 573.6375 304.88327Q573.90314 304.53952 573.90314 303.6489Q573.90314 302.80515 573.6375 302.47702Q573.3719 302.13327 572.98126 302.13327ZM572.98126 310.4614L577.6844 301.41452L578.54376 301.41452L573.85626 310.4614L572.98126 310.4614ZM576.7 308.13327Q576.7 307.2114 577.15314 306.57077Q577.6219 305.93015 578.5125 305.93015Q579.325 305.93015 579.85626 306.50827Q580.3875 307.07077 580.3875 308.19577Q580.3875 309.28952 579.84064 309.88327Q579.3094 310.4614 578.5125 310.4614Q577.7469 310.4614 577.21564 309.88327Q576.7 309.30515 576.7 308.13327ZM578.54376 306.6489Q578.1375 306.6489 577.8719 306.99265Q577.6219 307.3364 577.6219 308.24265Q577.6219 309.05515 577.8875 309.3989Q578.15314 309.74265 578.54376 309.74265Q578.9344 309.74265 579.2 309.3989Q579.46564 309.05515 579.46564 308.1489Q579.46564 307.32077 579.2 306.99265Q578.9344 306.6489 578.54376 306.6489Z" fill-rule="nonzero"/><path stroke="#8a8a8a" stroke-width="1.0" stroke-linecap="butt" d="M581.45 297.6489L472.95 297.6489L412.1489 297.6489" fill-rule="nonzero"/><path fill="#616161" d="M414.1489 297.6489C414.1489 296.54434 413.25348 295.6489 412.1489 295.6489C411.04434 295.6489 410.1489 296.54434 410.1489 297.6489C410.1489 298.75348 411.04434 299.6489 412.1489 299.6489C413.25348 299.6489 414.1489 298.75348 414.1489 297.6489" fill-rule="nonzero"/></svg>