<svg version="1.1" viewBox="0.0 0.0 600.0 371.0" fill="none" stroke="none" stroke-linecap="square" stroke-miterlimit="10" width="600" height="371" xmlns:xlink="http://www.w3.org/1999/xlink" xmlns="http://www.w3.org/2000/svg"><path fill="#ffffff" d="M0 0L600.0 0L600.0 371.0L0 371.0L0 0Z" fill-rule="nonzero"/><path fill="#4285f4" d="M300.0 54.916668C353.1492 54.916668 402.2611 83.27143 428.83572 129.3L364.41785 166.49167C351.13055 143.47739 326.57462 129.3 300.0 129.3Z" fill-rule="nonzero"/><path fill="#fbbc04" d="M225.61667 332.51904C167.30489 298.85272 138.87547 230.21802 156.30243 165.17969C173.7294 100.14135 232.66736 54.916668 300.0 54.916668L300.0 129.3C266.33368 129.3 236.8647 151.91234 228.15121 184.4315C219.43773 216.95068 233.65245 251.26804 262.80832 268.1012Z" fill-rule="nonzero"/><path fill="#ea4335" d="M428.83572 129.3C462.50204 187.61177 452.8053 261.2659 405.1939 308.87726C357.58255 356.48862 283.92844 366.18536 225.61667 332.51904L262.80832 268.1012C291.96423 284.93436 328.7913 280.08597 352.59695 256.2803C376.40265 232.47461 381.251 195.64755 364.41785 166.49167Z" fill-rule="nonzero"/><path fill="#1a1a1a" d="M23.378124 162.60487L23.378124 161.82362Q22.784374 162.7455 21.64375 162.7455Q20.89375 162.7455 20.26875 162.33925Q19.64375 161.91737 19.3 161.183Q18.95625 160.44862 18.95625 159.4955Q18.95625 158.57362 19.26875 157.808Q19.58125 157.04237 20.20625 156.65175Q20.83125 156.2455 21.596874 156.2455Q22.159374 156.2455 22.596874 156.47987Q23.034374 156.71425 23.315624 157.08925L23.315624 154.01112L24.3625 154.01112L24.3625 162.60487L23.378124 162.60487ZM20.05 159.4955Q20.05 160.69862 20.55 161.29237Q21.05 161.8705 21.7375 161.8705Q22.425 161.8705 22.909374 161.308Q23.39375 160.7455 23.39375 159.58925Q23.39375 158.308 22.89375 157.71425Q22.409374 157.1205 21.690624 157.1205Q20.9875 157.1205 20.51875 157.69862Q20.05 158.26112 20.05 159.4955ZM30.596874 160.60487L31.690624 160.72987Q31.440624 161.683 30.7375 162.21425Q30.034374 162.7455 28.95625 162.7455Q27.596874 162.7455 26.784374 161.90175Q25.9875 161.058 25.9875 159.54237Q25.9875 157.97987 26.8 157.1205Q27.6125 156.2455 28.89375 156.2455Q30.14375 156.2455 30.925 157.08925Q31.721874 157.933 31.721874 159.47987Q31.721874 159.57362 31.721874 159.76112L27.08125 159.76112Q27.14375 160.79237 27.659374 161.33925Q28.175 161.8705 28.95625 161.8705Q29.534374 161.8705 29.940624 161.57362Q30.3625 161.26112 30.596874 160.60487ZM27.14375 158.90175L30.6125 158.90175Q30.55 158.10487 30.221874 157.71425Q29.70625 157.10487 28.909374 157.10487Q28.175 157.10487 27.675 157.58925Q27.190624 158.07362 27.14375 158.90175ZM33.14375 163.1205L34.175 163.27675Q34.2375 163.7455 34.534374 163.96425Q34.925 164.26112 35.596874 164.26112Q36.33125 164.26112 36.721874 163.96425Q37.128124 163.66737 37.26875 163.15175Q37.3625 162.82362 37.346874 161.79237Q36.659374 162.60487 35.628124 162.60487Q34.346874 162.60487 33.64375 161.683Q32.940624 160.7455 32.940624 159.46425Q32.940624 158.57362 33.253124 157.82362Q33.58125 157.058 34.190624 156.65175Q34.8 156.2455 35.628124 156.2455Q36.7375 156.2455 37.45625 157.13612L37.45625 156.38612L38.425 156.38612L38.425 161.76112Q38.425 163.21425 38.128124 163.82362Q37.83125 164.433 37.190624 164.77675Q36.55 165.13612 35.6125 165.13612Q34.503124 165.13612 33.815624 164.63612Q33.128124 164.13612 33.14375 163.1205ZM34.01875 159.38612Q34.01875 160.60487 34.503124 161.16737Q34.9875 161.72987 35.721874 161.72987Q36.45625 161.72987 36.940624 161.16737Q37.440624 160.60487 37.440624 159.41737Q37.440624 158.27675 36.925 157.69862Q36.425 157.1205 35.70625 157.1205Q35.003124 157.1205 34.503124 157.69862Q34.01875 158.26112 34.01875 159.38612ZM40.33125 162.60487L40.33125 156.38612L41.284374 156.38612L41.284374 157.32362Q41.64375 156.66737 41.940624 156.46425Q42.253124 156.2455 42.628124 156.2455Q43.159374 156.2455 43.70625 156.57362L43.346874 157.558Q42.95625 157.32362 42.58125 157.32362Q42.221874 157.32362 41.940624 157.54237Q41.675 157.7455 41.565624 158.1205Q41.378124 158.683 41.378124 159.33925L41.378124 162.60487L40.33125 162.60487ZM48.596874 160.60487L49.690624 160.72987Q49.440624 161.683 48.7375 162.21425Q48.034374 162.7455 46.95625 162.7455Q45.596874 162.7455 44.784374 161.90175Q43.9875 161.058 43.9875 159.54237Q43.9875 157.97987 44.8 157.1205Q45.6125 156.2455 46.89375 156.2455Q48.14375 156.2455 48.925 157.08925Q49.721874 157.933 49.721874 159.47987Q49.721874 159.57362 49.721874 159.76112L45.08125 159.76112Q45.14375 160.79237 45.659374 161.33925Q46.175 161.8705 46.95625 161.8705Q47.534374 161.8705 47.940624 161.57362Q48.3625 161.26112 48.596874 160.60487ZM45.14375 158.90175L48.6125 158.90175Q48.55 158.10487 48.221874 157.71425Q47.70625 157.10487 46.909374 157.10487Q46.175 157.10487 45.675 157.58925Q45.190624 158.07362 45.14375 158.90175ZM55.596874 160.60487L56.690624 160.72987Q56.440624 161.683 55.7375 162.21425Q55.034374 162.7455 53.95625 162.7455Q52.596874 162.7455 51.784374 161.90175Q50.9875 161.058 50.9875 159.54237Q50.9875 157.97987 51.8 157.1205Q52.6125 156.2455 53.89375 156.2455Q55.14375 156.2455 55.925 157.08925Q56.721874 157.933 56.721874 159.47987Q56.721874 159.57362 56.721874 159.76112L52.08125 159.76112Q52.14375 160.79237 52.659374 161.33925Q53.175 161.8705 53.95625 161.8705Q54.534374 161.8705 54.940624 161.57362Q55.3625 161.26112 55.596874 160.60487ZM52.14375 158.90175L55.6125 158.90175Q55.55 158.10487 55.221874 157.71425Q54.70625 157.10487 53.909374 157.10487Q53.175 157.10487 52.675 157.58925Q52.190624 158.07362 52.14375 158.90175ZM57.3625 164.9955L57.3625 164.22987L64.3625 164.22987L64.3625 164.9955L57.3625 164.9955ZM69.40938 161.83925Q68.81563 162.33925 68.26875 162.54237Q67.7375 162.7455 67.1125 162.7455Q66.08125 162.7455 65.53438 162.2455Q64.9875 161.7455 64.9875 160.96425Q64.9875 160.51112 65.19063 160.13612Q65.39375 159.7455 65.7375 159.52675Q66.08125 159.29237 66.50313 159.183Q66.8 159.08925 67.44063 159.01112Q68.70625 158.8705 69.31563 158.65175Q69.31563 158.433 69.31563 158.38612Q69.31563 157.72987 69.01875 157.46425Q68.6125 157.1205 67.81563 157.1205Q67.08125 157.1205 66.72188 157.38612Q66.3625 157.63612 66.19063 158.29237L65.15938 158.15175Q65.3 157.4955 65.62813 157.08925Q65.95625 156.683 66.56563 156.46425Q67.175 156.2455 67.97188 156.2455Q68.76875 156.2455 69.26875 156.433Q69.76875 156.6205 70.00313 156.90175Q70.2375 157.183 70.33125 157.6205Q70.37813 157.88612 70.37813 158.58925L70.37813 159.9955Q70.37813 161.46425 70.44063 161.85487Q70.51875 162.2455 70.72188 162.60487L69.6125 162.60487Q69.45625 162.27675 69.40938 161.83925ZM69.31563 159.47987Q68.7375 159.71425 67.59688 159.88612Q66.94063 159.97987 66.675 160.10487Q66.40938 160.21425 66.25313 160.433Q66.1125 160.65175 66.1125 160.933Q66.1125 161.35487 66.425 161.63612Q66.75313 161.91737 67.3625 161.91737Q67.97188 161.91737 68.44063 161.65175Q68.925 161.38612 69.14375 160.91737Q69.31563 160.558 69.31563 159.8705L69.31563 159.47987ZM72.31563 162.60487L72.31563 154.01112L73.37813 154.01112L73.37813 162.60487L72.31563 162.60487ZM75.31563 162.60487L75.31563 154.01112L76.37813 154.01112L76.37813 162.60487L75.31563 162.60487ZM78.34688 155.22987L78.34688 154.01112L79.40938 154.01112L79.40938 155.22987L78.34688 155.22987ZM78.34688 162.60487L78.34688 156.38612L79.40938 156.38612L79.40938 162.60487L78.34688 162.60487ZM85.59688 160.60487L86.69063 160.72987Q86.44063 161.683 85.7375 162.21425Q85.03438 162.7455 83.95625 162.7455Q82.59688 162.7455 81.78438 161.90175Q80.9875 161.058 80.9875 159.54237Q80.9875 157.97987 81.8 157.1205Q82.6125 156.2455 83.89375 156.2455Q85.14375 156.2455 85.925 157.08925Q86.72188 157.933 86.72188 159.47987Q86.72188 159.57362 86.72188 159.76112L82.08125 159.76112Q82.14375 160.79237 82.65938 161.33925Q83.175 161.8705 83.95625 161.8705Q84.53438 161.8705 84.94063 161.57362Q85.3625 161.26112 85.59688 160.60487ZM82.14375 158.90175L85.6125 158.90175Q85.55 158.10487 85.22188 157.71425Q84.70625 157.10487 83.90938 157.10487Q83.175 157.10487 82.675 157.58925Q82.19063 158.07362 82.14375 158.90175ZM87.925 160.7455L88.95625 160.58925Q89.05 161.21425 89.44063 161.54237Q89.84688 161.8705 90.58125 161.8705Q91.3 161.8705 91.64375 161.58925Q92.00313 161.29237 92.00313 160.88612Q92.00313 160.52675 91.69063 160.32362Q91.47188 160.183 90.6125 159.96425Q89.45625 159.66737 89.00313 159.46425Q88.56563 159.2455 88.33125 158.8705Q88.09688 158.4955 88.09688 158.02675Q88.09688 157.6205 88.28438 157.26112Q88.47188 156.90175 88.8 156.66737Q89.05 156.4955 89.47188 156.3705Q89.89375 156.2455 90.39375 156.2455Q91.1125 156.2455 91.65938 156.46425Q92.22188 156.66737 92.4875 157.02675Q92.75313 157.38612 92.84688 157.97987L91.81563 158.1205Q91.75313 157.65175 91.40938 157.38612Q91.08125 157.10487 90.45625 157.10487Q89.7375 157.10487 89.425 157.35487Q89.1125 157.58925 89.1125 157.91737Q89.1125 158.1205 89.2375 158.27675Q89.37813 158.44862 89.64375 158.558Q89.8 158.6205 90.58125 158.82362Q91.70625 159.13612 92.14375 159.32362Q92.58125 159.51112 92.83125 159.8705Q93.08125 160.22987 93.08125 160.77675Q93.08125 161.308 92.76875 161.77675Q92.47188 162.22987 91.89375 162.4955Q91.31563 162.7455 90.58125 162.7455Q89.3625 162.7455 88.72188 162.2455Q88.09688 161.72987 87.925 160.7455Z" fill-rule="nonzero"/><path fill="#9e9e9e" d="M22.425 179.60487L22.425 177.54237L18.70625 177.54237L18.70625 176.57362L22.628124 171.01112L23.4875 171.01112L23.4875 176.57362L24.64375 176.57362L24.64375 177.54237L23.4875 177.54237L23.4875 179.60487L22.425 179.60487ZM22.425 176.57362L22.425 172.71425L19.7375 176.57362L22.425 176.57362ZM30.01875 179.60487L28.971874 179.60487L28.971874 172.88612Q28.58125 173.2455 27.95625 173.6205Q27.346874 173.97987 26.8625 174.15175L26.8625 173.13612Q27.7375 172.71425 28.39375 172.13612Q29.065624 171.54237 29.346874 170.97987L30.01875 170.97987L30.01875 179.60487ZM33.64375 179.60487L33.64375 178.40175L34.846874 178.40175L34.846874 179.60487L33.64375 179.60487ZM36.1125 172.13612L36.1125 171.1205L41.675 171.1205L41.675 171.94862Q40.8625 172.82362 40.05 174.27675Q39.253124 175.71425 38.815624 177.2455Q38.4875 178.32362 38.409374 179.60487L37.315624 179.60487Q37.33125 178.58925 37.70625 177.15175Q38.096874 175.71425 38.8 174.38612Q39.51875 173.058 40.33125 172.13612L36.1125 172.13612ZM43.253124 173.07362Q43.253124 172.15175 43.70625 171.51112Q44.175 170.8705 45.05 170.8705Q45.8625 170.8705 46.39375 171.44862Q46.925 172.02675 46.925 173.13612Q46.925 174.22987 46.378124 174.82362Q45.846874 175.40175 45.065624 175.40175Q44.284374 175.40175 43.76875 174.82362Q43.253124 174.2455 43.253124 173.07362ZM45.08125 171.58925Q44.690624 171.58925 44.425 171.933Q44.175 172.27675 44.175 173.183Q44.175 174.01112 44.425 174.35487Q44.690624 174.683 45.08125 174.683Q45.4875 174.683 45.7375 174.33925Q46.003124 173.9955 46.003124 173.10487Q46.003124 172.26112 45.7375 171.933Q45.471874 171.58925 45.08125 171.58925ZM45.08125 179.91737L49.784374 170.8705L50.64375 170.8705L45.95625 179.91737L45.08125 179.91737ZM48.8 177.58925Q48.8 176.66737 49.253124 176.02675Q49.721874 175.38612 50.6125 175.38612Q51.425 175.38612 51.95625 175.96425Q52.4875 176.52675 52.4875 177.65175Q52.4875 178.7455 51.940624 179.33925Q51.409374 179.91737 50.6125 179.91737Q49.846874 179.91737 49.315624 179.33925Q48.8 178.76112 48.8 177.58925ZM50.64375 176.10487Q50.2375 176.10487 49.971874 176.44862Q49.721874 176.79237 49.721874 177.69862Q49.721874 178.51112 49.9875 178.85487Q50.253124 179.19862 50.64375 179.19862Q51.034374 179.19862 51.3 178.85487Q51.565624 178.51112 51.565624 177.60487Q51.565624 176.77675 51.3 176.44862Q51.034374 176.10487 50.64375 176.10487Z" fill-rule="nonzero"/><path stroke="#757575" stroke-width="1.0" stroke-linecap="butt" d="M18.55 167.10487L145.23334 167.10487L163.48732 167.10487" fill-rule="nonzero"/><path fill="#9e9e9e" d="M165.48732 167.10487C165.48732 166.0003 164.59189 165.10487 163.48732 165.10487C162.38274 165.10487 161.48732 166.0003 161.48732 167.10487C161.48732 168.20944 162.38274 169.10487 163.48732 169.10487C164.59189 169.10487 165.48732 168.20944 165.48732 167.10487" fill-rule="nonzero"/><path fill="#1a1a1a" d="M520.27814 76.789406L520.27814 76.008156Q519.6844 76.93003 518.54376 76.93003Q517.79376 76.93003 517.16876 76.52378Q516.54376 76.101906 516.2 75.36753Q515.85626 74.633156 515.85626 73.68003Q515.85626 72.758156 516.16876 71.99253Q516.48126 71.226906 517.10626 70.83628Q517.73126 70.43003 518.4969 70.43003Q519.0594 70.43003 519.4969 70.664406Q519.9344 70.89878 520.21564 71.27378L520.21564 68.195656L521.2625 68.195656L521.2625 76.789406L520.27814 76.789406ZM516.95 73.68003Q516.95 74.883156 517.45 75.476906Q517.95 76.05503 518.6375 76.05503Q519.325 76.05503 519.8094 75.49253Q520.29376 74.93003 520.29376 73.77378Q520.29376 72.49253 519.79376 71.89878Q519.3094 71.30503 518.59064 71.30503Q517.8875 71.30503 517.41876 71.883156Q516.95 72.445656 516.95 73.68003ZM527.4969 74.789406L528.59064 74.914406Q528.34064 75.86753 527.6375 76.39878Q526.9344 76.93003 525.85626 76.93003Q524.4969 76.93003 523.6844 76.08628Q522.8875 75.24253 522.8875 73.726906Q522.8875 72.164406 523.7 71.30503Q524.5125 70.43003 525.79376 70.43003Q527.04376 70.43003 527.825 71.27378Q528.6219 72.11753 528.6219 73.664406Q528.6219 73.758156 528.6219 73.945656L523.98126 73.945656Q524.04376 74.976906 524.5594 75.52378Q525.075 76.05503 525.85626 76.05503Q526.4344 76.05503 526.84064 75.758156Q527.2625 75.445656 527.4969 74.789406ZM524.04376 73.08628L527.5125 73.08628Q527.45 72.289406 527.1219 71.89878Q526.60626 71.289406 525.8094 71.289406Q525.075 71.289406 524.575 71.77378Q524.09064 72.258156 524.04376 73.08628ZM530.04376 77.30503L531.075 77.46128Q531.1375 77.93003 531.4344 78.14878Q531.825 78.445656 532.4969 78.445656Q533.23126 78.445656 533.6219 78.14878Q534.02814 77.851906 534.16876 77.33628Q534.2625 77.008156 534.2469 75.976906Q533.5594 76.789406 532.52814 76.789406Q531.2469 76.789406 530.54376 75.86753Q529.84064 74.93003 529.84064 73.64878Q529.84064 72.758156 530.15314 72.008156Q530.48126 71.24253 531.09064 70.83628Q531.7 70.43003 532.52814 70.43003Q533.6375 70.43003 534.35626 71.320656L534.35626 70.570656L535.325 70.570656L535.325 75.945656Q535.325 77.39878 535.02814 78.008156Q534.73126 78.61753 534.09064 78.96128Q533.45 79.320656 532.5125 79.320656Q531.40314 79.320656 530.71564 78.820656Q530.02814 78.320656 530.04376 77.30503ZM530.91876 73.570656Q530.91876 74.789406 531.40314 75.351906Q531.8875 75.914406 532.6219 75.914406Q533.35626 75.914406 533.84064 75.351906Q534.34064 74.789406 534.34064 73.601906Q534.34064 72.46128 533.825 71.883156Q533.325 71.30503 532.60626 71.30503Q531.90314 71.30503 531.40314 71.883156Q530.91876 72.445656 530.91876 73.570656ZM537.23126 76.789406L537.23126 70.570656L538.1844 70.570656L538.1844 71.508156Q538.54376 70.851906 538.84064 70.64878Q539.15314 70.43003 539.52814 70.43003Q540.0594 70.43003 540.60626 70.758156L540.2469 71.74253Q539.85626 71.508156 539.48126 71.508156Q539.1219 71.508156 538.84064 71.726906Q538.575 71.93003 538.46564 72.30503Q538.27814 72.86753 538.27814 73.52378L538.27814 76.789406L537.23126 76.789406ZM545.4969 74.789406L546.59064 74.914406Q546.34064 75.86753 545.6375 76.39878Q544.9344 76.93003 543.85626 76.93003Q542.4969 76.93003 541.6844 76.08628Q540.8875 75.24253 540.8875 73.726906Q540.8875 72.164406 541.7 71.30503Q542.5125 70.43003 543.79376 70.43003Q545.04376 70.43003 545.825 71.27378Q546.6219 72.11753 546.6219 73.664406Q546.6219 73.758156 546.6219 73.945656L541.98126 73.945656Q542.04376 74.976906 542.5594 75.52378Q543.075 76.05503 543.85626 76.05503Q544.4344 76.05503 544.84064 75.758156Q545.2625 75.445656 545.4969 74.789406ZM542.04376 73.08628L545.5125 73.08628Q545.45 72.289406 545.1219 71.89878Q544.60626 71.289406 543.8094 71.289406Q543.075 71.289406 542.575 71.77378Q542.09064 72.258156 542.04376 73.08628ZM552.4969 74.789406L553.59064 74.914406Q553.34064 75.86753 552.6375 76.39878Q551.9344 76.93003 550.85626 76.93003Q549.4969 76.93003 548.6844 76.08628Q547.8875 75.24253 547.8875 73.726906Q547.8875 72.164406 548.7 71.30503Q549.5125 70.43003 550.79376 70.43003Q552.04376 70.43003 552.825 71.27378Q553.6219 72.11753 553.6219 73.664406Q553.6219 73.758156 553.6219 73.945656L548.98126 73.945656Q549.04376 74.976906 549.5594 75.52378Q550.075 76.05503 550.85626 76.05503Q551.4344 76.05503 551.84064 75.758156Q552.2625 75.445656 552.4969 74.789406ZM549.04376 73.08628L552.5125 73.08628Q552.45 72.289406 552.1219 71.89878Q551.60626 71.289406 550.8094 71.289406Q550.075 71.289406 549.575 71.77378Q549.09064 72.258156 549.04376 73.08628ZM554.2625 79.18003L554.2625 78.414406L561.2625 78.414406L561.2625 79.18003L554.2625 79.18003ZM562.2469 69.414406L562.2469 68.195656L563.3094 68.195656L563.3094 69.414406L562.2469 69.414406ZM562.2469 76.789406L562.2469 70.570656L563.3094 70.570656L563.3094 76.789406L562.2469 76.789406ZM564.825 74.93003L565.85626 74.77378Q565.95 75.39878 566.34064 75.726906Q566.7469 76.05503 567.48126 76.05503Q568.2 76.05503 568.54376 75.77378Q568.90314 75.476906 568.90314 75.070656Q568.90314 74.71128 568.59064 74.508156Q568.3719 74.36753 567.5125 74.14878Q566.35626 73.851906 565.90314 73.64878Q565.46564 73.43003 565.23126 73.05503Q564.9969 72.68003 564.9969 72.21128Q564.9969 71.80503 565.1844 71.445656Q565.3719 71.08628 565.7 70.851906Q565.95 70.68003 566.3719 70.55503Q566.79376 70.43003 567.29376 70.43003Q568.0125 70.43003 568.5594 70.64878Q569.1219 70.851906 569.3875 71.21128Q569.65314 71.570656 569.7469 72.164406L568.71564 72.30503Q568.65314 71.83628 568.3094 71.570656Q567.98126 71.289406 567.35626 71.289406Q566.6375 71.289406 566.325 71.539406Q566.0125 71.77378 566.0125 72.101906Q566.0125 72.30503 566.1375 72.46128Q566.27814 72.633156 566.54376 72.74253Q566.7 72.80503 567.48126 73.008156Q568.60626 73.320656 569.04376 73.508156Q569.48126 73.695656 569.73126 74.05503Q569.98126 74.414406 569.98126 74.96128Q569.98126 75.49253 569.66876 75.96128Q569.3719 76.414406 568.79376 76.68003Q568.21564 76.93003 567.48126 76.93003Q566.2625 76.93003 565.6219 76.43003Q564.9969 75.914406 564.825 74.93003ZM572.2469 69.414406L572.2469 68.195656L573.3094 68.195656L573.3094 69.414406L572.2469 69.414406ZM572.2469 76.789406L572.2469 70.570656L573.3094 70.570656L573.3094 76.789406L572.2469 76.789406ZM574.825 74.93003L575.85626 74.77378Q575.95 75.39878 576.34064 75.726906Q576.7469 76.05503 577.48126 76.05503Q578.2 76.05503 578.54376 75.77378Q578.90314 75.476906 578.90314 75.070656Q578.90314 74.71128 578.59064 74.508156Q578.3719 74.36753 577.5125 74.14878Q576.35626 73.851906 575.90314 73.64878Q575.46564 73.43003 575.23126 73.05503Q574.9969 72.68003 574.9969 72.21128Q574.9969 71.80503 575.1844 71.445656Q575.3719 71.08628 575.7 70.851906Q575.95 70.68003 576.3719 70.55503Q576.79376 70.43003 577.29376 70.43003Q578.0125 70.43003 578.5594 70.64878Q579.1219 70.851906 579.3875 71.21128Q579.65314 71.570656 579.7469 72.164406L578.71564 72.30503Q578.65314 71.83628 578.3094 71.570656Q577.98126 71.289406 577.35626 71.289406Q576.6375 71.289406 576.325 71.539406Q576.0125 71.77378 576.0125 72.101906Q576.0125 72.30503 576.1375 72.46128Q576.27814 72.633156 576.54376 72.74253Q576.7 72.80503 577.48126 73.008156Q578.60626 73.320656 579.04376 73.508156Q579.48126 73.695656 579.73126 74.05503Q579.98126 74.414406 579.98126 74.96128Q579.98126 75.49253 579.66876 75.96128Q579.3719 76.414406 578.79376 76.68003Q578.21564 76.93003 577.48126 76.93003Q576.2625 76.93003 575.6219 76.43003Q574.9969 75.914406 574.825 74.93003Z" fill-rule="nonzero"/><path fill="#9e9e9e" d="M550.91876 93.789406L549.8719 93.789406L549.8719 87.070656Q549.48126 87.43003 548.85626 87.80503Q548.2469 88.164406 547.7625 88.33628L547.7625 87.320656Q548.6375 86.89878 549.29376 86.320656Q549.96564 85.726906 550.2469 85.164406L550.91876 85.164406L550.91876 93.789406ZM559.41876 87.30503L558.3719 87.383156Q558.23126 86.758156 557.98126 86.476906Q557.54376 86.02378 556.91876 86.02378Q556.41876 86.02378 556.02814 86.30503Q555.54376 86.68003 555.2469 87.383156Q554.96564 88.070656 554.95 89.351906Q555.325 88.77378 555.8719 88.49253Q556.4344 88.21128 557.04376 88.21128Q558.09064 88.21128 558.825 88.99253Q559.575 89.77378 559.575 90.99253Q559.575 91.80503 559.21564 92.508156Q558.8719 93.195656 558.2625 93.570656Q557.65314 93.93003 556.8875 93.93003Q555.5594 93.93003 554.73126 92.96128Q553.90314 91.99253 553.90314 89.77378Q553.90314 87.27378 554.825 86.14878Q555.6219 85.164406 556.98126 85.164406Q557.9969 85.164406 558.6375 85.74253Q559.29376 86.30503 559.41876 87.30503ZM555.1219 91.008156Q555.1219 91.55503 555.34064 92.05503Q555.575 92.539406 555.98126 92.80503Q556.40314 93.070656 556.8719 93.070656Q557.52814 93.070656 558.0125 92.539406Q558.4969 91.99253 558.4969 91.070656Q558.4969 90.18003 558.0125 89.664406Q557.54376 89.14878 556.825 89.14878Q556.10626 89.14878 555.60626 89.664406Q555.1219 90.18003 555.1219 91.008156ZM561.54376 93.789406L561.54376 92.58628L562.7469 92.58628L562.7469 93.789406L561.54376 93.789406ZM564.0125 86.320656L564.0125 85.30503L569.575 85.30503L569.575 86.133156Q568.7625 87.008156 567.95 88.46128Q567.15314 89.89878 566.71564 91.43003Q566.3875 92.508156 566.3094 93.789406L565.21564 93.789406Q565.23126 92.77378 565.60626 91.33628Q565.9969 89.89878 566.7 88.570656Q567.41876 87.24253 568.23126 86.320656L564.0125 86.320656ZM571.15314 87.258156Q571.15314 86.33628 571.60626 85.695656Q572.075 85.05503 572.95 85.05503Q573.7625 85.05503 574.29376 85.633156Q574.825 86.21128 574.825 87.320656Q574.825 88.414406 574.27814 89.008156Q573.7469 89.58628 572.96564 89.58628Q572.1844 89.58628 571.66876 89.008156Q571.15314 88.43003 571.15314 87.258156ZM572.98126 85.77378Q572.59064 85.77378 572.325 86.11753Q572.075 86.46128 572.075 87.36753Q572.075 88.195656 572.325 88.539406Q572.59064 88.86753 572.98126 88.86753Q573.3875 88.86753 573.6375 88.52378Q573.90314 88.18003 573.90314 87.289406Q573.90314 86.445656 573.6375 86.11753Q573.3719 85.77378 572.98126 85.77378ZM572.98126 94.101906L577.6844 85.05503L578.54376 85.05503L573.85626 94.101906L572.98126 94.101906ZM576.7 91.77378Q576.7 90.851906 577.15314 90.21128Q577.6219 89.570656 578.5125 89.570656Q579.325 89.570656 579.85626 90.14878Q580.3875 90.71128 580.3875 91.83628Q580.3875 92.93003 579.84064 93.52378Q579.3094 94.101906 578.5125 94.101906Q577.7469 94.101906 577.21564 93.52378Q576.7 92.945656 576.7 91.77378ZM578.54376 90.289406Q578.1375 90.289406 577.8719 90.633156Q577.6219 90.976906 577.6219 91.883156Q577.6219 92.695656 577.8875 93.039406Q578.15314 93.383156 578.54376 93.383156Q578.9344 93.383156 579.2 93.039406Q579.46564 92.695656 579.46564 91.789406Q579.46564 90.96128 579.2 90.633156Q578.9344 90.289406 578.54376 90.289406Z" fill-rule="nonzero"/><path stroke="#757575" stroke-width="1.0" stroke-linecap="butt" d="M581.45 81.289406L454.76666 81.289406L370.66415 81.289406" fill-rule="nonzero"/><path fill="#9e9e9e" d="M372.66415 81.289406C372.66415 80.18484 371.76874 79.289406 370.66415 79.289406C369.5596 79.289406 368.66415 80.18484 368.66415 81.289406C368.66415 82.393974 369.5596 83.289406 370.66415 83.289406C371.76874 83.289406 372.66415 82.393974 372.66415 81.289406" fill-rule="nonzero"/><path fill="#1a1a1a" d="M526.27814 299.11755L526.27814 298.3363Q525.6844 299.25818 524.54376 299.25818Q523.79376 299.25818 523.16876 298.85193Q522.54376 298.43005 522.2 297.69568Q521.85626 296.9613 521.85626 296.00818Q521.85626 295.0863 522.16876 294.32068Q522.48126 293.55505 523.10626 293.16443Q523.73126 292.75818 524.4969 292.75818Q525.0594 292.75818 525.4969 292.99255Q525.9344 293.22693 526.21564 293.60193L526.21564 290.5238L527.2625 290.5238L527.2625 299.11755L526.27814 299.11755ZM522.95 296.00818Q522.95 297.2113 523.45 297.80505Q523.95 298.38318 524.6375 298.38318Q525.325 298.38318 525.8094 297.82068Q526.29376 297.25818 526.29376 296.10193Q526.29376 294.82068 525.79376 294.22693Q525.3094 293.63318 524.59064 293.63318Q523.8875 293.63318 523.41876 294.2113Q522.95 294.7738 522.95 296.00818ZM533.4969 297.11755L534.59064 297.24255Q534.34064 298.19568 533.6375 298.72693Q532.9344 299.25818 531.85626 299.25818Q530.4969 299.25818 529.6844 298.41443Q528.8875 297.57068 528.8875 296.05505Q528.8875 294.49255 529.7 293.63318Q530.5125 292.75818 531.79376 292.75818Q533.04376 292.75818 533.825 293.60193Q534.6219 294.44568 534.6219 295.99255Q534.6219 296.0863 534.6219 296.2738L529.98126 296.2738Q530.04376 297.30505 530.5594 297.85193Q531.075 298.38318 531.85626 298.38318Q532.4344 298.38318 532.84064 298.0863Q533.2625 297.7738 533.4969 297.11755ZM530.04376 295.41443L533.5125 295.41443Q533.45 294.61755 533.1219 294.22693Q532.60626 293.61755 531.8094 293.61755Q531.075 293.61755 530.575 294.10193Q530.09064 294.5863 530.04376 295.41443ZM536.04376 299.63318L537.075 299.78943Q537.1375 300.25818 537.4344 300.47693Q537.825 300.7738 538.4969 300.7738Q539.23126 300.7738 539.6219 300.47693Q540.02814 300.18005 540.16876 299.66443Q540.2625 299.3363 540.2469 298.30505Q539.5594 299.11755 538.52814 299.11755Q537.2469 299.11755 536.54376 298.19568Q535.84064 297.25818 535.84064 295.97693Q535.84064 295.0863 536.15314 294.3363Q536.48126 293.57068 537.09064 293.16443Q537.7 292.75818 538.52814 292.75818Q539.6375 292.75818 540.35626 293.6488L540.35626 292.8988L541.325 292.8988L541.325 298.2738Q541.325 299.72693 541.02814 300.3363Q540.73126 300.94568 540.09064 301.28943Q539.45 301.6488 538.5125 301.6488Q537.40314 301.6488 536.71564 301.1488Q536.02814 300.6488 536.04376 299.63318ZM536.91876 295.8988Q536.91876 297.11755 537.40314 297.68005Q537.8875 298.24255 538.6219 298.24255Q539.35626 298.24255 539.84064 297.68005Q540.34064 297.11755 540.34064 295.93005Q540.34064 294.78943 539.825 294.2113Q539.325 293.63318 538.60626 293.63318Q537.90314 293.63318 537.40314 294.2113Q536.91876 294.7738 536.91876 295.8988ZM543.23126 299.11755L543.23126 292.8988L544.1844 292.8988L544.1844 293.8363Q544.54376 293.18005 544.84064 292.97693Q545.15314 292.75818 545.52814 292.75818Q546.0594 292.75818 546.60626 293.0863L546.2469 294.07068Q545.85626 293.8363 545.48126 293.8363Q545.1219 293.8363 544.84064 294.05505Q544.575 294.25818 544.46564 294.63318Q544.27814 295.19568 544.27814 295.85193L544.27814 299.11755L543.23126 299.11755ZM551.4969 297.11755L552.59064 297.24255Q552.34064 298.19568 551.6375 298.72693Q550.9344 299.25818 549.85626 299.25818Q548.4969 299.25818 547.6844 298.41443Q546.8875 297.57068 546.8875 296.05505Q546.8875 294.49255 547.7 293.63318Q548.5125 292.75818 549.79376 292.75818Q551.04376 292.75818 551.825 293.60193Q552.6219 294.44568 552.6219 295.99255Q552.6219 296.0863 552.6219 296.2738L547.98126 296.2738Q548.04376 297.30505 548.5594 297.85193Q549.075 298.38318 549.85626 298.38318Q550.4344 298.38318 550.84064 298.0863Q551.2625 297.7738 551.4969 297.11755ZM548.04376 295.41443L551.5125 295.41443Q551.45 294.61755 551.1219 294.22693Q550.60626 293.61755 549.8094 293.61755Q549.075 293.61755 548.575 294.10193Q548.09064 294.5863 548.04376 295.41443ZM558.4969 297.11755L559.59064 297.24255Q559.34064 298.19568 558.6375 298.72693Q557.9344 299.25818 556.85626 299.25818Q555.4969 299.25818 554.6844 298.41443Q553.8875 297.57068 553.8875 296.05505Q553.8875 294.49255 554.7 293.63318Q555.5125 292.75818 556.79376 292.75818Q558.04376 292.75818 558.825 293.60193Q559.6219 294.44568 559.6219 295.99255Q559.6219 296.0863 559.6219 296.2738L554.98126 296.2738Q555.04376 297.30505 555.5594 297.85193Q556.075 298.38318 556.85626 298.38318Q557.4344 298.38318 557.84064 298.0863Q558.2625 297.7738 558.4969 297.11755ZM555.04376 295.41443L558.5125 295.41443Q558.45 294.61755 558.1219 294.22693Q557.60626 293.61755 556.8094 293.61755Q556.075 293.61755 555.575 294.10193Q555.09064 294.5863 555.04376 295.41443ZM560.2625 301.50818L560.2625 300.74255L567.2625 300.74255L567.2625 301.50818L560.2625 301.50818ZM572.3094 298.35193Q571.71564 298.85193 571.16876 299.05505Q570.6375 299.25818 570.0125 299.25818Q568.98126 299.25818 568.4344 298.75818Q567.8875 298.25818 567.8875 297.47693Q567.8875 297.0238 568.09064 296.6488Q568.29376 296.25818 568.6375 296.03943Q568.98126 295.80505 569.40314 295.69568Q569.7 295.60193 570.34064 295.5238Q571.60626 295.38318 572.21564 295.16443Q572.21564 294.94568 572.21564 294.8988Q572.21564 294.24255 571.91876 293.97693Q571.5125 293.63318 570.71564 293.63318Q569.98126 293.63318 569.6219 293.8988Q569.2625 294.1488 569.09064 294.80505L568.0594 294.66443Q568.2 294.00818 568.52814 293.60193Q568.85626 293.19568 569.46564 292.97693Q570.075 292.75818 570.8719 292.75818Q571.66876 292.75818 572.16876 292.94568Q572.66876 293.13318 572.90314 293.41443Q573.1375 293.69568 573.23126 294.13318Q573.27814 294.3988 573.27814 295.10193L573.27814 296.50818Q573.27814 297.97693 573.34064 298.36755Q573.41876 298.75818 573.6219 299.11755L572.5125 299.11755Q572.35626 298.78943 572.3094 298.35193ZM572.21564 295.99255Q571.6375 296.22693 570.4969 296.3988Q569.84064 296.49255 569.575 296.61755Q569.3094 296.72693 569.15314 296.94568Q569.0125 297.16443 569.0125 297.44568Q569.0125 297.86755 569.325 298.1488Q569.65314 298.43005 570.2625 298.43005Q570.8719 298.43005 571.34064 298.16443Q571.825 297.8988 572.04376 297.43005Q572.21564 297.07068 572.21564 296.38318L572.21564 295.99255ZM579.21564 301.50818L579.21564 298.4613Q578.96564 298.80505 578.5125 299.03943Q578.075 299.25818 577.575 299.25818Q576.46564 299.25818 575.66876 298.38318Q574.8719 297.49255 574.8719 295.94568Q574.8719 295.00818 575.2 294.2738Q575.52814 293.5238 576.1375 293.1488Q576.7625 292.75818 577.4969 292.75818Q578.65314 292.75818 579.3094 293.72693L579.3094 292.8988L580.2625 292.8988L580.2625 301.50818L579.21564 301.50818ZM575.95 295.99255Q575.95 297.19568 576.45 297.78943Q576.96564 298.38318 577.66876 298.38318Q578.34064 298.38318 578.825 297.82068Q579.3094 297.24255 579.3094 296.0863Q579.3094 294.8363 578.79376 294.2113Q578.29376 293.5863 577.59064 293.5863Q576.91876 293.5863 576.4344 294.18005Q575.95 294.75818 575.95 295.99255Z" fill-rule="nonzero"/><path fill="#9e9e9e" d="M550.325 316.11755L550.325 314.05505L546.60626 314.05505L546.60626 313.0863L550.52814 307.5238L551.3875 307.5238L551.3875 313.0863L552.54376 313.0863L552.54376 314.05505L551.3875 314.05505L551.3875 316.11755L550.325 316.11755ZM550.325 313.0863L550.325 309.22693L547.6375 313.0863L550.325 313.0863ZM557.91876 316.11755L556.8719 316.11755L556.8719 309.3988Q556.48126 309.75818 555.85626 310.13318Q555.2469 310.49255 554.7625 310.66443L554.7625 309.6488Q555.6375 309.22693 556.29376 308.6488Q556.96564 308.05505 557.2469 307.49255L557.91876 307.49255L557.91876 316.11755ZM561.54376 316.11755L561.54376 314.91443L562.7469 314.91443L562.7469 316.11755L561.54376 316.11755ZM564.0125 308.6488L564.0125 307.63318L569.575 307.63318L569.575 308.4613Q568.7625 309.3363 567.95 310.78943Q567.15314 312.22693 566.71564 313.75818Q566.3875 314.8363 566.3094 316.11755L565.21564 316.11755Q565.23126 315.10193 565.60626 313.66443Q565.9969 312.22693 566.7 310.8988Q567.41876 309.57068 568.23126 308.6488L564.0125 308.6488ZM571.15314 309.5863Q571.15314 308.66443 571.60626 308.0238Q572.075 307.38318 572.95 307.38318Q573.7625 307.38318 574.29376 307.9613Q574.825 308.53943 574.825 309.6488Q574.825 310.74255 574.27814 311.3363Q573.7469 311.91443 572.96564 311.91443Q572.1844 311.91443 571.66876 311.3363Q571.15314 310.75818 571.15314 309.5863ZM572.98126 308.10193Q572.59064 308.10193 572.325 308.44568Q572.075 308.78943 572.075 309.69568Q572.075 310.5238 572.325 310.86755Q572.59064 311.19568 572.98126 311.19568Q573.3875 311.19568 573.6375 310.85193Q573.90314 310.50818 573.90314 309.61755Q573.90314 308.7738 573.6375 308.44568Q573.3719 308.10193 572.98126 308.10193ZM572.98126 316.43005L577.6844 307.38318L578.54376 307.38318L573.85626 316.43005L572.98126 316.43005ZM576.7 314.10193Q576.7 313.18005 577.15314 312.53943Q577.6219 311.8988 578.5125 311.8988Q579.325 311.8988 579.85626 312.47693Q580.3875 313.03943 580.3875 314.16443Q580.3875 315.25818 579.84064 315.85193Q579.3094 316.43005 578.5125 316.43005Q577.7469 316.43005 577.21564 315.85193Q576.7 315.2738 576.7 314.10193ZM578.54376 312.61755Q578.1375 312.61755 577.8719 312.9613Q577.6219 313.30505 577.6219 314.2113Q577.6219 315.0238 577.8875 315.36755Q578.15314 315.7113 578.54376 315.7113Q578.9344 315.7113 579.2 315.36755Q579.46564 315.0238 579.46564 314.11755Q579.46564 313.28943 579.2 312.9613Q578.9344 312.61755 578.54376 312.61755Z" fill-rule="nonzero"/><path stroke="#757575" stroke-width="1.0" stroke-linecap="butt" d="M581.45 303.61755L454.76666 303.61755L399.93423 303.61755" fill-rule="nonzero"/><path fill="#9e9e9e" d="M401.93423 303.61755C401.93423 302.513 401.0388 301.61755 399.93423 301.61755C398.82965 301.61755 397.93423 302.513 397.93423 303.61755C397.93423 304.72214 398.82965 305.61755 399.93423 305.61755C401.0388 305.61755 401.93423 304.72214 401.93423 303.61755" fill-rule="nonzero"/><path fill="#757575" d="M20.096874 37.55L20.096874 23.2375L25.4875 23.2375Q26.925 23.2375 27.675 23.3625Q28.721874 23.55 29.440624 24.05Q30.159374 24.534374 30.58125 25.425Q31.01875 26.315624 31.01875 27.378124Q31.01875 29.20625 29.846874 30.471874Q28.690624 31.721874 25.659374 31.721874L21.9875 31.721874L21.9875 37.55L20.096874 37.55ZM21.9875 30.034374L25.690624 30.034374Q27.51875 30.034374 28.284374 29.3625Q29.065624 28.675 29.065624 27.425Q29.065624 26.534374 28.6125 25.89375Q28.159374 25.253124 27.425 25.05Q26.940624 24.925 25.64375 24.925L21.9875 24.925L21.9875 30.034374ZM39.64375 36.26875Q38.659374 37.096874 37.753124 37.440624Q36.846874 37.784374 35.815624 37.784374Q34.1125 37.784374 33.190624 36.95625Q32.26875 36.1125 32.26875 34.815624Q32.26875 34.05 32.6125 33.425Q32.971874 32.8 33.534374 32.425Q34.096874 32.034374 34.8 31.83125Q35.315624 31.70625 36.3625 31.565624Q38.4875 31.315624 39.4875 30.971874Q39.503124 30.6125 39.503124 30.503124Q39.503124 29.440624 39.003124 28.9875Q38.33125 28.39375 37.003124 28.39375Q35.753124 28.39375 35.159374 28.83125Q34.58125 29.26875 34.3 30.378124L32.58125 30.14375Q32.815624 29.034374 33.346874 28.3625Q33.878124 27.675 34.89375 27.315624Q35.909374 26.940624 37.253124 26.940624Q38.58125 26.940624 39.409374 27.253124Q40.2375 27.565624 40.628124 28.05Q41.01875 28.51875 41.175 29.2375Q41.26875 29.690624 41.26875 30.8625L41.26875 33.20625Q41.26875 35.659374 41.378124 36.315624Q41.4875 36.95625 41.83125 37.55L39.9875 37.55Q39.721874 37.003124 39.64375 36.26875ZM39.4875 32.346874Q38.534374 32.7375 36.6125 33.003124Q35.534374 33.159374 35.08125 33.3625Q34.64375 33.55 34.39375 33.925Q34.14375 34.3 34.14375 34.76875Q34.14375 35.471874 34.675 35.940624Q35.20625 36.409374 36.2375 36.409374Q37.253124 36.409374 38.034374 35.971874Q38.83125 35.51875 39.20625 34.753124Q39.4875 34.14375 39.4875 32.9875L39.4875 32.346874ZM43.878124 37.55L43.878124 23.2375L45.64375 23.2375L45.64375 31.39375L49.8 27.175L52.065624 27.175L48.1125 31.01875L52.471874 37.55L50.3 37.55L46.878124 32.253124L45.64375 33.440624L45.64375 37.55L43.878124 37.55ZM53.878124 25.253124L53.878124 23.2375L55.64375 23.2375L55.64375 25.253124L53.878124 25.253124ZM53.878124 37.55L53.878124 27.175L55.64375 27.175L55.64375 37.55L53.878124 37.55ZM57.159374 34.45625L58.909374 34.175Q59.05 35.221874 59.721874 35.784374Q60.39375 36.33125 61.596874 36.33125Q62.8 36.33125 63.378124 35.846874Q63.971874 35.346874 63.971874 34.690624Q63.971874 34.096874 63.45625 33.753124Q63.096874 33.51875 61.659374 33.159374Q59.721874 32.659374 58.971874 32.315624Q58.2375 31.95625 57.846874 31.33125Q57.45625 30.690624 57.45625 29.925Q57.45625 29.2375 57.76875 28.64375Q58.096874 28.05 58.64375 27.659374Q59.05 27.3625 59.753124 27.159374Q60.471874 26.940624 61.284374 26.940624Q62.503124 26.940624 63.425 27.3Q64.34688 27.64375 64.78438 28.253124Q65.22188 28.846874 65.39375 29.846874L63.675 30.08125Q63.55 29.284374 62.9875 28.846874Q62.425 28.39375 61.409374 28.39375Q60.190624 28.39375 59.675 28.8Q59.159374 29.190624 59.159374 29.721874Q59.159374 30.065624 59.378124 30.346874Q59.58125 30.628124 60.05 30.815624Q60.315624 30.909374 61.596874 31.253124Q63.471874 31.753124 64.20625 32.08125Q64.94063 32.39375 65.3625 33.003124Q65.78438 33.596874 65.78438 34.503124Q65.78438 35.378124 65.26875 36.159374Q64.75313 36.940624 63.784374 37.3625Q62.815624 37.784374 61.596874 37.784374Q59.58125 37.784374 58.51875 36.940624Q57.45625 36.096874 57.159374 34.45625ZM71.70625 35.971874L71.95625 37.534374Q71.22188 37.690624 70.62813 37.690624Q69.675 37.690624 69.14375 37.39375Q68.62813 37.08125 68.40938 36.596874Q68.19063 36.096874 68.19063 34.51875L68.19063 28.55L66.90938 28.55L66.90938 27.175L68.19063 27.175L68.19063 24.6125L69.94063 23.55L69.94063 27.175L71.70625 27.175L71.70625 28.55L69.94063 28.55L69.94063 34.6125Q69.94063 35.3625 70.03438 35.58125Q70.12813 35.784374 70.33125 35.925Q70.55 36.05 70.94063 36.05Q71.22188 36.05 71.70625 35.971874ZM80.64375 36.26875Q79.65938 37.096874 78.75313 37.440624Q77.84688 37.784374 76.81563 37.784374Q75.1125 37.784374 74.19063 36.95625Q73.26875 36.1125 73.26875 34.815624Q73.26875 34.05 73.6125 33.425Q73.97188 32.8 74.53438 32.425Q75.09688 32.034374 75.8 31.83125Q76.31563 31.70625 77.3625 31.565624Q79.4875 31.315624 80.4875 30.971874Q80.50313 30.6125 80.50313 30.503124Q80.50313 29.440624 80.00313 28.9875Q79.33125 28.39375 78.00313 28.39375Q76.75313 28.39375 76.15938 28.83125Q75.58125 29.26875 75.3 30.378124L73.58125 30.14375Q73.81563 29.034374 74.34688 28.3625Q74.87813 27.675 75.89375 27.315624Q76.90938 26.940624 78.25313 26.940624Q79.58125 26.940624 80.40938 27.253124Q81.2375 27.565624 81.62813 28.05Q82.01875 28.51875 82.175 29.2375Q82.26875 29.690624 82.26875 30.8625L82.26875 33.20625Q82.26875 35.659374 82.37813 36.315624Q82.4875 36.95625 82.83125 37.55L80.9875 37.55Q80.72188 37.003124 80.64375 36.26875ZM80.4875 32.346874Q79.53438 32.7375 77.6125 33.003124Q76.53438 33.159374 76.08125 33.3625Q75.64375 33.55 75.39375 33.925Q75.14375 34.3 75.14375 34.76875Q75.14375 35.471874 75.675 35.940624Q76.20625 36.409374 77.2375 36.409374Q78.25313 36.409374 79.03438 35.971874Q79.83125 35.51875 80.20625 34.753124Q80.4875 34.14375 80.4875 32.9875L80.4875 32.346874ZM84.8625 37.55L84.8625 27.175L86.45625 27.175L86.45625 28.659374Q87.59688 26.940624 89.75313 26.940624Q90.69063 26.940624 91.47188 27.284374Q92.26875 27.6125 92.65938 28.159374Q93.05 28.70625 93.20625 29.45625Q93.3 29.95625 93.3 31.175L93.3 37.55L91.53438 37.55L91.53438 31.2375Q91.53438 30.159374 91.33125 29.628124Q91.12813 29.096874 90.59688 28.784374Q90.08125 28.471874 89.37813 28.471874Q88.25313 28.471874 87.44063 29.190624Q86.62813 29.89375 86.62813 31.878124L86.62813 37.55L84.8625 37.55ZM103.75313 37.55L99.8 27.175L101.65938 27.175L103.89375 33.39375Q104.25313 34.39375 104.55 35.471874Q104.78438 34.659374 105.20625 33.503124L107.50313 27.175L109.31563 27.175L105.39375 37.55L103.75313 37.55ZM109.15938 34.45625L110.90938 34.175Q111.05 35.221874 111.72188 35.784374Q112.39375 36.33125 113.59688 36.33125Q114.8 36.33125 115.37813 35.846874Q115.97188 35.346874 115.97188 34.690624Q115.97188 34.096874 115.45625 33.753124Q115.09688 33.51875 113.65938 33.159374Q111.72188 32.659374 110.97188 32.315624Q110.2375 31.95625 109.84688 31.33125Q109.45625 30.690624 109.45625 29.925Q109.45625 29.2375 109.76875 28.64375Q110.09688 28.05 110.64375 27.659374Q111.05 27.3625 111.75313 27.159374Q112.47188 26.940624 113.28438 26.940624Q114.50313 26.940624 115.425 27.3Q116.34688 27.64375 116.78438 28.253124Q117.22188 28.846874 117.39375 29.846874L115.675 30.08125Q115.55 29.284374 114.9875 28.846874Q114.425 28.39375 113.40938 28.39375Q112.19063 28.39375 111.675 28.8Q111.15938 29.190624 111.15938 29.721874Q111.15938 30.065624 111.37813 30.346874Q111.58125 30.628124 112.05 30.815624Q112.31563 30.909374 113.59688 31.253124Q115.47188 31.753124 116.20625 32.08125Q116.94063 32.39375 117.3625 33.003124Q117.78438 33.596874 117.78438 34.503124Q117.78438 35.378124 117.26875 36.159374Q116.75313 36.940624 115.78438 37.3625Q114.81563 37.784374 113.59688 37.784374Q111.58125 37.784374 110.51875 36.940624Q109.45625 36.096874 109.15938 34.45625ZM120.3625 37.55L120.3625 35.55L122.3625 35.55L122.3625 37.55L120.3625 37.55ZM138.64375 33.753124L140.3625 33.971874Q140.08125 35.76875 138.90938 36.784374Q137.75313 37.784374 136.05 37.784374Q133.925 37.784374 132.62813 36.39375Q131.33125 35.003124 131.33125 32.409374Q131.33125 30.721874 131.87813 29.471874Q132.44063 28.20625 133.58125 27.58125Q134.72188 26.940624 136.06563 26.940624Q137.75313 26.940624 138.81563 27.8Q139.89375 28.659374 140.20625 30.221874L138.4875 30.4875Q138.25313 29.440624 137.62813 28.925Q137.00313 28.39375 136.12813 28.39375Q134.8 28.39375 133.97188 29.346874Q133.14375 30.3 133.14375 32.346874Q133.14375 34.440624 133.94063 35.39375Q134.7375 36.33125 136.03438 36.33125Q137.06563 36.33125 137.75313 35.70625Q138.45625 35.065624 138.64375 33.753124ZM141.22188 32.3625Q141.22188 29.4875 142.81563 28.096874Q144.15938 26.940624 146.08125 26.940624Q148.22188 26.940624 149.56563 28.346874Q150.925 29.753124 150.925 32.221874Q150.925 34.221874 150.33125 35.378124Q149.7375 36.51875 148.58125 37.159374Q147.44063 37.784374 146.08125 37.784374Q143.89375 37.784374 142.55 36.39375Q141.22188 34.9875 141.22188 32.3625ZM143.01875 32.3625Q143.01875 34.3625 143.87813 35.346874Q144.75313 36.33125 146.08125 36.33125Q147.39375 36.33125 148.25313 35.346874Q149.12813 34.346874 149.12813 32.3Q149.12813 30.378124 148.25313 29.39375Q147.37813 28.39375 146.08125 28.39375Q144.75313 28.39375 143.87813 29.39375Q143.01875 30.378124 143.01875 32.3625ZM159.65938 37.55L159.65938 36.01875Q158.45625 37.784374 156.37813 37.784374Q155.45625 37.784374 154.65938 37.440624Q153.8625 37.08125 153.47188 36.55Q153.09688 36.01875 152.94063 35.2375Q152.83125 34.721874 152.83125 33.596874L152.83125 27.175L154.58125 27.175L154.58125 32.925Q154.58125 34.3 154.69063 34.784374Q154.8625 35.471874 155.39375 35.878124Q155.94063 36.26875 156.72188 36.26875Q157.51875 36.26875 158.20625 35.8625Q158.90938 35.45625 159.19063 34.76875Q159.4875 34.065624 159.4875 32.7375L159.4875 27.175L161.2375 27.175L161.2375 37.55L159.65938 37.55ZM162.8625 37.55L162.8625 27.175L164.45625 27.175L164.45625 28.659374Q165.59688 26.940624 167.75313 26.940624Q168.69063 26.940624 169.47188 27.284374Q170.26875 27.6125 170.65938 28.159374Q171.05 28.70625 171.20625 29.45625Q171.3 29.95625 171.3 31.175L171.3 37.55L169.53438 37.55L169.53438 31.2375Q169.53438 30.159374 169.33125 29.628124Q169.12813 29.096874 168.59688 28.784374Q168.08125 28.471874 167.37813 28.471874Q166.25313 28.471874 165.44063 29.190624Q164.62813 29.89375 164.62813 31.878124L164.62813 37.55L162.8625 37.55ZM176.70625 35.971874L176.95625 37.534374Q176.22188 37.690624 175.62813 37.690624Q174.675 37.690624 174.14375 37.39375Q173.62813 37.08125 173.40938 36.596874Q173.19063 36.096874 173.19063 34.51875L173.19063 28.55L171.90938 28.55L171.90938 27.175L173.19063 27.175L173.19063 24.6125L174.94063 23.55L174.94063 27.175L176.70625 27.175L176.70625 28.55L174.94063 28.55L174.94063 34.6125Q174.94063 35.3625 175.03438 35.58125Q175.12813 35.784374 175.33125 35.925Q175.55 36.05 175.94063 36.05Q176.22188 36.05 176.70625 35.971874ZM178.84688 37.55L178.84688 27.175L180.425 27.175L180.425 28.753124Q181.03438 27.64375 181.55 27.3Q182.06563 26.940624 182.675 26.940624Q183.56563 26.940624 184.4875 27.503124L183.87813 29.14375Q183.2375 28.753124 182.59688 28.753124Q182.01875 28.753124 181.55 29.1125Q181.09688 29.45625 180.89375 30.065624Q180.6125 31.003124 180.6125 32.1125L180.6125 37.55L178.84688 37.55ZM185.78438 41.55L185.59688 39.89375Q186.175 40.05 186.59688 40.05Q187.19063 40.05 187.53438 39.846874Q187.89375 39.659374 188.1125 39.315624Q188.28438 39.05 188.65938 38.003124Q188.70625 37.846874 188.81563 37.565624L184.87813 27.175L186.76875 27.175L188.925 33.190624Q189.34688 34.33125 189.675 35.58125Q189.9875 34.378124 190.39375 33.221874L192.6125 27.175L194.37813 27.175L190.425 37.721874Q189.8 39.440624 189.44063 40.08125Q188.97188 40.95625 188.3625 41.346874Q187.76875 41.753124 186.925 41.753124Q186.40938 41.753124 185.78438 41.55ZM194.25313 41.51875L194.25313 40.253124L205.89375 40.253124L205.89375 41.51875L194.25313 41.51875ZM206.8625 37.55L206.8625 27.175L208.45625 27.175L208.45625 28.659374Q209.59688 26.940624 211.75313 26.940624Q212.69063 26.940624 213.47188 27.284374Q214.26875 27.6125 214.65938 28.159374Q215.05 28.70625 215.20625 29.45625Q215.3 29.95625 215.3 31.175L215.3 37.55L213.53438 37.55L213.53438 31.2375Q213.53438 30.159374 213.33125 29.628124Q213.12813 29.096874 212.59688 28.784374Q212.08125 28.471874 211.37813 28.471874Q210.25313 28.471874 209.44063 29.190624Q208.62813 29.89375 208.62813 31.878124L208.62813 37.55L206.8625 37.55ZM223.64375 36.26875Q222.65938 37.096874 221.75313 37.440624Q220.84688 37.784374 219.81563 37.784374Q218.1125 37.784374 217.19063 36.95625Q216.26875 36.1125 216.26875 34.815624Q216.26875 34.05 216.6125 33.425Q216.97188 32.8 217.53438 32.425Q218.09688 32.034374 218.8 31.83125Q219.31563 31.70625 220.3625 31.565624Q222.4875 31.315624 223.4875 30.971874Q223.50313 30.6125 223.50313 30.503124Q223.50313 29.440624 223.00313 28.9875Q222.33125 28.39375 221.00313 28.39375Q219.75313 28.39375 219.15938 28.83125Q218.58125 29.26875 218.3 30.378124L216.58125 30.14375Q216.81563 29.034374 217.34688 28.3625Q217.87813 27.675 218.89375 27.315624Q219.90938 26.940624 221.25313 26.940624Q222.58125 26.940624 223.40938 27.253124Q224.2375 27.565624 224.62813 28.05Q225.01875 28.51875 225.175 29.2375Q225.26875 29.690624 225.26875 30.8625L225.26875 33.20625Q225.26875 35.659374 225.37813 36.315624Q225.4875 36.95625 225.83125 37.55L223.9875 37.55Q223.72188 37.003124 223.64375 36.26875ZM223.4875 32.346874Q222.53438 32.7375 220.6125 33.003124Q219.53438 33.159374 219.08125 33.3625Q218.64375 33.55 218.39375 33.925Q218.14375 34.3 218.14375 34.76875Q218.14375 35.471874 218.675 35.940624Q219.20625 36.409374 220.2375 36.409374Q221.25313 36.409374 222.03438 35.971874Q222.83125 35.51875 223.20625 34.753124Q223.4875 34.14375 223.4875 32.9875L223.4875 32.346874ZM227.8625 37.55L227.8625 27.175L229.44063 27.175L229.44063 28.628124Q229.925 27.878124 230.7375 27.409374Q231.55 26.940624 232.58125 26.940624Q233.7375 26.940624 234.47188 27.425Q235.20625 27.89375 235.51875 28.753124Q236.75313 26.940624 238.72188 26.940624Q240.26875 26.940624 241.09688 27.8Q241.925 28.659374 241.925 30.425L241.925 37.55L240.175 37.55L240.175 31.01875Q240.175 29.95625 240.00313 29.503124Q239.83125 29.034374 239.37813 28.753124Q238.94063 28.471874 238.33125 28.471874Q237.2375 28.471874 236.50313 29.20625Q235.78438 29.925 235.78438 31.51875L235.78438 37.55L234.03438 37.55L234.03438 30.815624Q234.03438 29.64375 233.59688 29.065624Q233.175 28.471874 232.19063 28.471874Q231.45625 28.471874 230.81563 28.8625Q230.19063 29.253124 229.90938 30.003124Q229.62813 30.753124 229.62813 32.175L229.62813 37.55L227.8625 37.55ZM250.97188 34.20625L252.78438 34.440624Q252.3625 36.01875 251.19063 36.909374Q250.03438 37.784374 248.22188 37.784374Q245.95625 37.784374 244.6125 36.39375Q243.28438 34.9875 243.28438 32.45625Q243.28438 29.83125 244.62813 28.39375Q245.97188 26.940624 248.12813 26.940624Q250.20625 26.940624 251.51875 28.3625Q252.84688 29.76875 252.84688 32.346874Q252.84688 32.503124 252.83125 32.815624L245.09688 32.815624Q245.19063 34.51875 246.06563 35.425Q246.94063 36.33125 248.2375 36.33125Q249.20625 36.33125 249.87813 35.83125Q250.56563 35.315624 250.97188 34.20625ZM245.19063 31.3625L250.9875 31.3625Q250.87813 30.065624 250.33125 29.409374Q249.4875 28.39375 248.14375 28.39375Q246.94063 28.39375 246.1125 29.20625Q245.28438 30.003124 245.19063 31.3625Z" fill-rule="nonzero"/></svg>